<svg width="400" height="300" viewBox="0 0 400 300" xmlns="http://www.w3.org/2000/svg" xmlns:sketch="http://www.bohemiancoding.com/sketch/ns"><title>dark</title><g sketch:type="MSArtboardGroup" fill="none"><path d="M32 52.5c2.485 0 4.5-2.016 4.5-4.5s-2.015-4.5-4.5-4.5-4.5 2.016-4.5 4.5 2.015 4.5 4.5 4.5zm12-3c0 .375-.278.694-.651.742l-2.734.366c-.173.572-.401 1.121-.679 1.639l1.676 2.192c.228.298.2.72-.066.986l-2.121 2.121c-.145.146-.337.219-.53.219-.16 0-.32-.051-.455-.154l-2.191-1.676c-.518.277-1.067.506-1.639.681l-.364 2.734c-.05.373-.367.651-.743.651h-3c-.376 0-.694-.278-.743-.651l-.364-2.734c-.573-.174-1.121-.401-1.639-.681l-2.191 1.676c-.135.103-.296.154-.456.154-.193 0-.385-.073-.53-.219l-2.121-2.121c-.266-.266-.294-.688-.066-.986l1.676-2.192c-.278-.518-.506-1.067-.679-1.639l-2.734-.366c-.373-.049-.651-.367-.651-.742v-3c0-.375.278-.694.651-.742l2.734-.366c.173-.572.401-1.121.679-1.639l-1.676-2.192c-.228-.298-.2-.72.065-.986l2.121-2.121c.145-.146.337-.219.53-.219.16 0 .32.051.456.154l2.192 1.676c.518-.279 1.066-.506 1.639-.681l.364-2.734c.05-.373.367-.651.743-.651h3c.376 0 .694.278.743.651l.364 2.734c.573.174 1.121.403 1.639.681l2.191-1.676c.135-.103.296-.154.455-.154.193 0 .385.073.53.219l2.121 2.121c.266.266.294.688.066.986l-1.676 2.192c.278.518.506 1.067.679 1.639l2.734.366c.373.049.651.367.651.742v3z" fill="#6B6963" sketch:type="MSShapeGroup"/><path d="M24 27c1.657 0 3-1.344 3-3s-1.343-3-3-3-3 1.344-3 3 1.343 3 3 3zm8-4v2c0 .25-.186.462-.434.495l-1.823.244c-.115.381-.267.747-.453 1.093l1.117 1.461c.152.199.134.48-.044.657l-1.414 1.414c-.097.098-.225.146-.354.146-.107 0-.213-.034-.304-.103l-1.461-1.117c-.345.185-.711.338-1.093.454l-.243 1.823c-.033.249-.245.434-.496.434h-2c-.251 0-.462-.185-.496-.434l-.243-1.823c-.382-.116-.748-.267-1.093-.454l-1.461 1.117c-.09.069-.197.103-.304.103-.129 0-.256-.049-.354-.146l-1.414-1.414c-.177-.177-.196-.459-.044-.657l1.117-1.461c-.185-.345-.337-.711-.453-1.093l-1.823-.244c-.248-.033-.434-.245-.434-.495v-2c0-.25.186-.462.434-.495l1.823-.244c.115-.381.267-.747.453-1.093l-1.117-1.461c-.152-.199-.134-.48.044-.657l1.414-1.414c.097-.098.225-.146.354-.146.107 0 .214.034.304.103l1.461 1.117c.345-.186.711-.338 1.093-.454l.243-1.823c.033-.249.245-.434.496-.434h2c.251 0 .462.185.496.434l.243 1.823c.382.116.748.269 1.093.454l1.461-1.117c.09-.069.197-.103.304-.103.129 0 .257.049.354.146l1.414 1.414c.177.177.196.459.044.657l-1.117 1.461c.185.345.337.711.453 1.093l1.823.244c.248.033.434.245.434.495z" fill="#6B6963" sketch:type="MSShapeGroup"/><path d="M85 51v8h3v-8h-3zm5-9v17h3v-17h-3zm5-5v22h3v-22h-3zm5 7v15h3v-15h-3zm5 4v11h3v-11h-3z" fill="#6B6963" sketch:type="MSShapeGroup"/><path d="M54.5 31.5v-11 11zm2 0v-13 13zm2 0v-8 8zm2 0v-10 10zm-8 0v-6 6zm10 0v-3 3zm-12 0v-3 3z" stroke="#6B6963" stroke-linecap="square" sketch:type="MSShapeGroup"/><path d="M41.8 16.014h-.8v3.556h-2v-3.556h-.8c-1.027.687-2.2 1.879-2.2 3.111 0 1.115 1.135 1.533 2 2.222v8.889c0 .889.444 1.778 2 1.778s2-.889 2-1.778v-8.889c.865-.689 2-1.107 2-2.222 0-1.232-1.173-2.424-2.2-3.111zm-2.8 12.002v2h2v-2h-2z" fill="#6B6963" sketch:type="MSShapeGroup"/><path d="M66.67 36.021h-.975v5h-3v-5h-.975c-1.413 1.031-3.025 2.652-3.025 4.5 0 1.673.81 2.466 2 3.5v12c0 2.077 1.361 4 3.5 4 2.139 0 3.5-1.923 3.5-4v-12c1.19-1.034 2-1.827 2-3.5 0-1.848-1.612-3.469-3.025-4.5zm-3.975 18v3h3v-3h-3z" fill="#6B6963" sketch:type="MSShapeGroup"/><path d="M122.995 40c-4.416 0-7.995 3.591-7.995 8 0 4.418 3.588 8 7.995 8h10.009c4.416 0 7.995-3.591 7.995-8 0-4.418-3.588-8-7.995-8h-10.009zm10.286 13.474c2.917 0 5.281-2.451 5.281-5.474s-2.364-5.474-5.281-5.474-5.281 2.451-5.281 5.474 2.364 5.474 5.281 5.474z" fill="#6B6963" sketch:type="MSShapeGroup"/><path d="M72 32c4.418 0 8-3.582 8-8s-3.582-8-8-8-8 3.582-8 8 3.582 8 8 8zm6.5-8c0-3.59-2.91-6.5-6.5-6.5s-6.5 2.91-6.5 6.5 2.91 6.5 6.5 6.5 6.5-2.91 6.5-6.5zm-6.5 5c2.761 0 5-2.239 5-5s-2.239-5-5-5-5 2.239-5 5 2.239 5 5 5z" fill="#6B6963" sketch:type="MSShapeGroup"/></g></svg>