<?xml version="1.0" encoding="UTF-8" standalone="no"?>
<svg width="400px" height="300px" viewBox="0 0 400 300" version="1.1" xmlns="http://www.w3.org/2000/svg" xmlns:xlink="http://www.w3.org/1999/xlink" xmlns:sketch="http://www.bohemiancoding.com/sketch/ns">
    <title>sand</title>
    <description>Created with Sketch (http://www.bohemiancoding.com/sketch)</description>
    <defs></defs>
    <g id="Page-1" stroke="none" stroke-width="1" fill="none" fill-rule="evenodd" sketch:type="MSPage">
        <g id="sand" sketch:type="MSArtboardGroup">
            <path d="M32,52.5 C34.4853125,52.5 36.5,50.484375 36.5,48 C36.5,45.515625 34.4853125,43.5 32,43.5 C29.5146875,43.5 27.5,45.515625 27.5,48 C27.5,50.484375 29.5146875,52.5 32,52.5 L32,52.5 Z M44,49.5 C44,49.875 43.72175,50.19375 43.349,50.2425 L40.6146875,50.608125 C40.441625,51.18 40.213625,51.729375 39.9355625,52.246875 L41.6114375,54.43875 C41.8398125,54.736875 41.8116875,55.15875 41.5458125,55.425 L39.424625,57.545625 C39.279125,57.691875 39.087125,57.765 38.8941875,57.765 C38.73425,57.765 38.5739375,57.714375 38.43875,57.61125 L36.24725,55.935 C35.7291875,56.2125 35.1805625,56.44125 34.6079375,56.615625 L34.2434375,59.349375 C34.1935625,59.7225 33.8759375,60 33.5,60 L30.5,60 C30.1240625,60 29.80625,59.7225 29.7565625,59.349375 L29.3920625,56.615625 C28.8194375,56.44125 28.2708125,56.214375 27.75275,55.935 L25.56125,57.61125 C25.4260625,57.714375 25.26575,57.765 25.105625,57.765 C24.9126875,57.765 24.720875,57.691875 24.575375,57.545625 L22.4541875,55.425 C22.1883125,55.15875 22.1601875,54.736875 22.3885625,54.43875 L24.0644375,52.246875 C23.7865625,51.729375 23.558375,51.18 23.3853125,50.608125 L20.651,50.2425 C20.27825,50.19375 20,49.875 20,49.5 L20,46.5 C20,46.125 20.27825,45.80625 20.651,45.7575 L23.3853125,45.391875 C23.558375,44.82 23.7865625,44.270625 24.0644375,43.753125 L22.3885625,41.56125 C22.1601875,41.263125 22.1883125,40.84125 22.454,40.575 L24.575375,38.454375 C24.720875,38.308125 24.9126875,38.235 25.105625,38.235 C25.26575,38.235 25.4260625,38.285625 25.56125,38.38875 L27.7529375,40.065 C28.2708125,39.785625 28.8194375,39.55875 29.3920625,39.384375 L29.7565625,36.650625 C29.80625,36.2775 30.1240625,36 30.5,36 L33.5,36 C33.8759375,36 34.1935625,36.2775 34.2434375,36.650625 L34.6079375,39.384375 C35.1805625,39.55875 35.7291875,39.7875 36.24725,40.065 L38.43875,38.38875 C38.5739375,38.285625 38.73425,38.235 38.8941875,38.235 C39.087125,38.235 39.279125,38.308125 39.424625,38.454375 L41.546,40.575 C41.811875,40.84125 41.8398125,41.263125 41.611625,41.56125 L39.93575,43.753125 C40.213625,44.270625 40.441625,44.82 40.6146875,45.391875 L43.349,45.7575 C43.72175,45.80625 44,46.125 44,46.5 L44,49.5 Z" id="settings-big" fill="#B5AA97" sketch:type="MSShapeGroup"></path>
            <path d="M24,27 C25.656875,27 27,25.65625 27,24 C27,22.34375 25.656875,21 24,21 C22.343125,21 21,22.34375 21,24 C21,25.65625 22.343125,27 24,27 L24,27 Z M32,23 L32,25 C32,25.25 31.8145,25.4625 31.566,25.495 L29.743125,25.73875 C29.62775,26.12 29.47575,26.48625 29.290375,26.83125 L30.407625,28.2925 C30.559875,28.49125 30.541125,28.7725 30.363875,28.95 L28.94975,30.36375 C28.85275,30.46125 28.72475,30.51 28.596125,30.51 C28.4895,30.51 28.382625,30.47625 28.2925,30.4075 L26.8315,29.29 C26.486125,29.475 26.120375,29.6275 25.738625,29.74375 L25.495625,31.56625 C25.462375,31.815 25.250625,32 25,32 L23,32 C22.749375,32 22.5375,31.815 22.504375,31.56625 L22.261375,29.74375 C21.879625,29.6275 21.513875,29.47625 21.1685,29.29 L19.7075,30.4075 C19.617375,30.47625 19.5105,30.51 19.40375,30.51 C19.275125,30.51 19.14725,30.46125 19.05025,30.36375 L17.636125,28.95 C17.458875,28.7725 17.440125,28.49125 17.592375,28.2925 L18.709625,26.83125 C18.524375,26.48625 18.37225,26.12 18.256875,25.73875 L16.434,25.495 C16.1855,25.4625 16,25.25 16,25 L16,23 C16,22.75 16.1855,22.5375 16.434,22.505 L18.256875,22.26125 C18.37225,21.88 18.524375,21.51375 18.709625,21.16875 L17.592375,19.7075 C17.440125,19.50875 17.458875,19.2275 17.636,19.05 L19.05025,17.63625 C19.14725,17.53875 19.275125,17.49 19.40375,17.49 C19.5105,17.49 19.617375,17.52375 19.7075,17.5925 L21.168625,18.71 C21.513875,18.52375 21.879625,18.3725 22.261375,18.25625 L22.504375,16.43375 C22.5375,16.185 22.749375,16 23,16 L25,16 C25.250625,16 25.462375,16.185 25.495625,16.43375 L25.738625,18.25625 C26.120375,18.3725 26.486125,18.525 26.8315,18.71 L28.2925,17.5925 C28.382625,17.52375 28.4895,17.49 28.596125,17.49 C28.72475,17.49 28.85275,17.53875 28.94975,17.63625 L30.364,19.05 C30.54125,19.2275 30.559875,19.50875 30.40775,19.7075 L29.2905,21.16875 C29.47575,21.51375 29.62775,21.88 29.743125,22.26125 L31.566,22.505 C31.8145,22.5375 32,22.75 32,23 L32,23 Z" id="settings-small" fill="#B5AA97" sketch:type="MSShapeGroup"></path>
            <path d="M85,51 L85,59 L88,59 L88,51 L85,51 Z M90,42 L90,59 L93,59 L93,42 L90,42 Z M95,37 L95,59 L98,59 L98,37 L95,37 Z M100,44 L100,59 L103,59 L103,44 L100,44 Z M105,48 L105,59 L108,59 L108,48 L105,48 Z" id="debugger-big" fill="#B5AA97" sketch:type="MSShapeGroup"></path>
            <path d="M54.5,31.5 L54.5,20.5 L54.5,31.5 Z M56.5,31.5 L56.5,18.5 L56.5,31.5 Z M58.5,31.5 L58.5,23.5 L58.5,31.5 Z M60.5,31.5 L60.5,21.5 L60.5,31.5 Z M52.5,31.5 L52.5,25.5 L52.5,31.5 Z M62.5,31.5 L62.5,28.5 L62.5,31.5 Z M50.5,31.5 L50.5,28.5 L50.5,31.5 Z" id="debugger-small" stroke="#B5AA97" stroke-linecap="square" fill="#B5AA97" sketch:type="MSShapeGroup"></path>
            <path d="M41.8,16.0140496 L41,16.0140496 L41,19.5696051 L39,19.5696051 L39,16.0140496 L38.2,16.0140496 C37.1727061,16.7013443 36,17.8930515 36,19.1251607 C36,20.2405239 37.1348139,20.6582052 38,21.3473829 L38,30.2362718 C38,31.1251607 38.4444984,32.0140496 40,32.0140496 C41.5555016,32.0140496 42,31.1251607 42,30.2362718 L42,21.3473829 C42.8651861,20.6582052 44,20.2405239 44,19.1251607 C44,17.8930515 42.8273644,16.7013443 41.8,16.0140496 Z M39,28.0158058 L39,30.0158058 L41,30.0158058 L41,28.0158058 L39,28.0158058 Z" id="setup-small" fill="#B5AA97" sketch:type="MSShapeGroup"></path>
            <path d="M66.6700028,36.0210744 L65.6950028,36.0210744 L65.6950028,41.0210744 L62.6950028,41.0210744 L62.6950028,36.0210744 L61.7200028,36.0210744 C60.3074737,37.0520165 58.6950028,38.6729106 58.6950028,40.5210744 C58.6950028,42.1941192 59.505372,42.9873078 60.6950028,44.0210744 L60.6950028,56.0210744 C60.6950028,58.0980225 62.0561881,60.0210744 64.1950028,60.0210744 C66.3338175,60.0210744 67.6950028,58.0980225 67.6950028,56.0210744 L67.6950028,44.0210744 C68.8846337,42.9873078 69.6950028,42.1941192 69.6950028,40.5210744 C69.6950028,38.6729106 68.0826289,37.0520165 66.6700028,36.0210744 Z M62.6950028,54.0210744 L62.6950028,57.0210744 L65.6950028,57.0210744 L65.6950028,54.0210744 L62.6950028,54.0210744 Z" id="setup-big" fill="#B5AA97" sketch:type="MSShapeGroup"></path>
            <path d="M122.995275,40 C118.579607,40 115,43.5907123 115,48 C115,52.418278 118.587891,56 122.995275,56 L133.004725,56 C137.420393,56 141,52.4092877 141,48 C141,43.581722 137.412109,40 133.004725,40 L122.995275,40 Z M133.28125,53.4736842 C136.198004,53.4736842 138.5625,51.0230325 138.5625,48 C138.5625,44.9769675 136.198004,42.5263158 133.28125,42.5263158 C130.364496,42.5263158 128,44.9769675 128,48 C128,51.0230325 130.364496,53.4736842 133.28125,53.4736842 Z" id="integrations-big" fill="#B5AA97" sketch:type="MSShapeGroup"></path>
            <path d="M152,24 L146.5,29.5 L152,24 L146.5,18.5 L152,24 Z M152,24 L157.5,18.5 L152,24 L157.5,29.5 L152,24 Z" id="Line" stroke="#B5AA97" sketch:type="MSShapeGroup"></path>
            <path d="M120,32 C124.418278,32 128,28.4182782 128,24 C128,19.5817218 124.418278,16 120,16 C115.581722,16 112,19.5817218 112,24 C112,28.4182782 115.581722,32 120,32 Z M119,26 L119,28 L121,28 L121,26 L119,26 Z M119,23 C119,22.801999 118.956,22.1723342 119,22 C119.024063,21.9057514 118.953555,21.0195135 119,21 C119.289107,20.878535 120.912739,20.9146777 121,21 C121.071848,21.0702518 121,21.8095551 121,22 C121,22 120.146667,22.8899994 120,23 C119.853333,23.1100005 119.099,23.7873323 119,24 C118.901,24.2126677 119.022,24.6846651 119,25 C119,25 119.735417,25 120,25 C120.230417,25 121,25 121,25 C121.018627,24.8602943 121.950484,24.0588833 122,24 C122.079126,23.9059048 122.961796,23.0947458 123,23 C123.091667,22.7726655 123,22.3520018 123,22 C123,21.7873323 123.091667,21.2456679 123,21 C122.948921,20.8631091 122.094165,20.0941652 122,20 C121.86638,19.8663797 121.129474,19.5531526 121,19.5 C120.808247,19.4212804 118.646693,19.4390153 118.5,19.5 C118.292914,19.5860921 117.584412,20.4115685 117.5,20.5 C117.380382,20.6253146 117.061879,21.3408819 117,21.5 C116.943402,21.645537 117.004099,22.7786424 117,23 L119,23 Z" id="Oval-9" fill="#B5AA97" sketch:type="MSShapeGroup"></path>
            <path d="M136,29.3333333 C136.589333,29.3333333 137.066667,28.856 137.066667,28.2666667 C137.066667,27.6773333 136.589333,27.2 136,27.2 C135.410667,27.2 134.933333,27.6773333 134.933333,28.2666667 C134.933333,28.856 135.410667,29.3333333 136,29.3333333 L136,29.3333333 Z M136,16 C140.418125,16 144,19.5819375 144,24 C144,28.4180625 140.418125,32 136,32 C131.581875,32 128,28.4180625 128,24 C128,19.5819375 131.581875,16 136,16 L136,16 Z M134.933333,25.1428571 L134.933333,20.1904762 C134.933333,19.6432381 135.410667,19.2 136,19.2 C136.589333,19.2 137.066667,19.6432381 137.066667,20.1904762 L137.066667,25.1428571 C137.066667,25.6900952 136.589333,26.1333333 136,26.1333333 C135.410667,26.1333333 134.933333,25.6900952 134.933333,25.1428571 Z" id="Fill-28" fill="#B5AA97" sketch:type="MSShapeGroup"></path>
            <path d="M104,19 L110,24 L104,29 L104,26 L99,26 L99,22 L104,22 L104,19 Z" id="e" fill="#B5AA97" sketch:type="MSShapeGroup"></path>
            <path d="M72,32 C76.4182782,32 80,28.4182782 80,24 C80,19.5817218 76.4182782,16 72,16 C67.5817218,16 64,19.5817218 64,24 C64,28.4182782 67.5817218,32 72,32 Z M78.5,24 C78.5,20.410149 75.589851,17.5 72,17.5 C68.410149,17.5 65.5,20.410149 65.5,24 C65.5,27.589851 68.410149,30.5 72,30.5 C75.589851,30.5 78.5,27.589851 78.5,24 Z M72,29 C74.7614239,29 77,26.7614239 77,24 C77,21.2385761 74.7614239,19 72,19 C69.2385761,19 67,21.2385761 67,24 C67,26.7614239 69.2385761,29 72,29 Z" id="integrations-small" fill="#B5AA97" sketch:type="MSShapeGroup"></path>
            <path d="M92.125,21.155625 L93.3596875,22.3903125 C93.431875,22.4615625 93.5275,22.5 93.625,22.5 C93.6728125,22.5 93.7225,22.490625 93.7684375,22.471875 C93.9090625,22.41375 94,22.276875 94,22.125 L94,18.375 C94,18.1678125 93.8321875,18 93.625,18 L89.875,18 C89.723125,18 89.58625,18.0909375 89.528125,18.2315625 C89.509375,18.2775 89.5,18.32625 89.5,18.375 C89.5,18.4725 89.5384375,18.568125 89.6096875,18.6403125 L90.844375,19.875 L88.1096875,22.6096875 C88.0365625,22.6828125 88,22.779375 88,22.875 C88,22.970625 88.0365625,23.0671875 88.1096875,23.1403125 L88.8596875,23.8903125 C88.9328125,23.9634375 89.0284375,24 89.125,24 C89.220625,24 89.31625,23.9634375 89.3903125,23.8903125 L92.125,21.155625 L92.125,21.155625 Z M82,30 L82,18 L88,18 L88,20 L84,20 L84,28 L92,28 L92,24 L94,24 L94,30 L82,30 Z" id="external" fill="#B5AA97" sketch:type="MSShapeGroup"></path>
        </g>
    </g>
</svg>