<?xml version="1.0" encoding="UTF-8" standalone="no"?>
<svg width="1025px" height="575px" viewBox="0 0 1025 575" version="1.1" xmlns="http://www.w3.org/2000/svg" xmlns:xlink="http://www.w3.org/1999/xlink" xmlns:sketch="http://www.bohemiancoding.com/sketch/ns">
    <!-- Generator: Sketch 3.3 (11970) - http://www.bohemiancoding.com/sketch -->
    <title>Artboard</title>
    <desc>Created with Sketch.</desc>
    <defs></defs>
    <g id="Page-1" stroke="none" stroke-width="1" fill="none" fill-rule="evenodd" sketch:type="MSPage">
        <g id="Artboard" sketch:type="MSArtboardGroup">
            <g id="Group" sketch:type="MSLayerGroup">
                <g id="Oval-4-+-Fill-62-+-Oval-42" transform="translate(275.000000, 50.000000)" sketch:type="MSShapeGroup">
                    <path d="M25,50 C38.8071194,50 50,38.8071194 50,25 C50,11.1928806 38.8071194,0 25,0 C11.1928806,0 0,11.1928806 0,25 C0,38.8071194 11.1928806,50 25,50 L25,50 Z" id="Oval-4" fill="#F8F5F0"></path>
                    <path d="M28,10 L27,10 L27,16.0262318 L23.0000002,16.0262318 L23.0000002,10 L22,10 C20.2878435,11.2886776 18.5,13.1897953 18.5,15.5 C18.5,17.591306 19.5580232,18.7077918 21,20 L21,35.5 C21,38.0961852 22.4074973,40 25,40 C27.5925027,40 29,38.0961852 29,35.5 L29,20 C30.4419768,18.7077918 32,17.591306 32,15.5 C32,13.1897953 29.712274,11.2886776 28,10 L28,10 Z" id="Path" fill="#CECBC2"></path>
                    <rect id="Rectangle-77" fill="#F8F5F0" x="24" y="34" width="2" height="2"></rect>
                </g>
                <g id="Oval-4-+-Fill-160" transform="translate(350.000000, 50.000000)" sketch:type="MSShapeGroup">
                    <path d="M25,50 C38.8071194,50 50,38.8071194 50,25 C50,11.1928806 38.8071194,0 25,0 C11.1928806,0 0,11.1928806 0,25 C0,38.8071194 11.1928806,50 25,50 L25,50 Z" id="Oval-4" fill="#F8F5F0"></path>
                    <path d="M24.3975904,37.0481928 C20.0552315,37.0481928 16.5345593,35.5297721 16.5345593,33.6576784 L16.5345593,29.5180723 C17.8899493,30.9737684 20.8631579,31.9624212 24.3975904,31.9624212 C27.9320228,31.9624212 30.9052315,30.9737684 32.2606214,29.5180723 L32.2606214,33.6576784 C32.2606214,35.5297721 28.7399493,37.0481928 24.3975904,37.0481928 L24.3975904,37.0481928 L24.3975904,37.0481928 Z M24.3975904,19.9799197 C20.0552315,19.9799197 16.5345593,18.4061716 16.5345593,16.4658635 C16.5345593,14.5254455 20.0552315,12.9518072 24.3975904,12.9518072 C28.7399493,12.9518072 32.2606214,14.5254455 32.2606214,16.4658635 C32.2606214,18.4061716 28.7399493,19.9799197 24.3975904,19.9799197 L24.3975904,19.9799197 L24.3975904,19.9799197 Z M24.3975904,25 C19.6945149,25 16.5345593,23.2732689 16.5345593,21.6613055 L16.5345593,18.4738956 C17.0063412,18.9767864 17.6835447,19.4233368 18.5455295,19.7895499 C20.1210843,20.4583321 22.1998732,20.8266319 24.3975904,20.8266319 C26.5953075,20.8266319 28.6740964,20.4583321 30.2496512,19.7895499 C31.111636,19.4233368 31.7888396,18.9767864 32.2606214,18.4738956 L32.2606214,21.6613055 C32.2606214,23.2732689 29.1006658,25 24.3975904,25 L24.3975904,25 L24.3975904,25 Z M16.5345593,23.4939759 C17.8899493,24.9496721 20.8631579,25.9383248 24.3975904,25.9383248 C27.9320228,25.9383248 30.9052315,24.9496721 32.2606214,23.4939759 L32.2606214,27.633582 C32.2606214,29.2705647 29.1006658,31.0240964 24.3975904,31.0240964 C19.6945149,31.0240964 16.5345593,29.2705647 16.5345593,27.633582 L16.5345593,23.4939759 L16.5345593,23.4939759 Z M24.3975904,11.4457831 C22.125502,11.4457831 19.96624,11.8480759 18.3176142,12.5803997 C15.4833396,13.8367827 15.060241,15.6520614 15.060241,16.622741 L15.060241,33.377259 C15.060241,34.3479386 15.4833396,36.1631095 18.3176142,37.4194924 C19.96624,38.1519241 22.125502,38.5542169 24.3975904,38.5542169 C26.6696787,38.5542169 28.8279681,38.1519241 30.4775665,37.4194924 C33.3118411,36.1631095 33.7349398,34.3479386 33.7349398,33.377259 L33.7349398,16.622741 C33.7349398,15.6520614 33.3118411,13.8367827 30.4775665,12.5803997 C28.8279681,11.8480759 26.6696787,11.4457831 24.3975904,11.4457831 L24.3975904,11.4457831 Z" id="Fill-160" opacity="0.7" fill="#BEB9B0"></path>
                </g>
                <g id="Oval-4-+-Fill-62" transform="translate(500.000000, 50.000000)" sketch:type="MSShapeGroup">
                    <path d="M50,100 C77.6142389,100 100,77.6142389 100,50 C100,22.3857611 77.6142389,0 50,0 C22.3857611,0 0,22.3857611 0,50 C0,77.6142389 22.3857611,100 50,100 L50,100 Z" id="Oval-4" fill="#5CCC5C"></path>
                    <path d="M57,72 C57,75.1121291 53.590887,78 50.5000002,78 C47.4091134,78 43.9745565,75.1121291 43.9745565,72 L43.9745567,40 C41.1703811,38.1552538 39,34.6167352 39,31 C39,28.2633918 42.2426342,23.8468585 43.9745565,22 L43.9745567,34 L56.9999993,34 L57,22 C58.7321554,23.8468585 62,28.2633918 62,31 C62,34.6167352 59.8041749,38.1552538 56.9999993,40 L57,72 L57,72 Z M57.0000004,20 L55.0000004,20 L55.0000004,32.0524635 L46.0000004,32.0524635 L46.0000004,20 L43.9999999,20 C40.575687,22.5773552 37,26.3795906 37,31 C37,35.1826121 39.1160464,38.4155835 42,41 L42,71 C42,76.1923704 45.3235105,79.9681664 50.5085158,79.9681664 C55.6935212,79.9681664 59,76.1923704 59,71 L59,41 C61.8839536,38.4155835 64,35.1826121 64,31 C64,26.3795906 60.4245484,22.5773552 57.0000004,20 L57.0000004,20 Z" id="Fill-62" fill="#268069"></path>
                    <circle id="Oval-42" fill="#268069" cx="50.5" cy="70.5" r="3.5"></circle>
                </g>
                <g id="Oval-4-+-Fill-62" transform="translate(625.000000, 50.000000)" sketch:type="MSShapeGroup">
                    <path d="M50,100 C77.6142389,100 100,77.6142389 100,50 C100,22.3857611 77.6142389,0 50,0 C22.3857611,0 0,22.3857611 0,50 C0,77.6142389 22.3857611,100 50,100 L50,100 Z" id="Oval-4" fill="#5CCC5C"></path>
                    <path d="M50,74 C41.164,74 34,70.975306 34,67.2460954 L34,59 C36.758,61.8997467 42.808,63.8691431 50,63.8691431 C57.192,63.8691431 63.242,61.8997467 66,59 L66,67.2460954 C66,70.975306 58.836,74 50,74 L50,74 L50,74 Z M50,40 C41.164,40 34,36.8650937 34,33 C34,29.1346875 41.164,26 50,26 C58.836,26 66,29.1346875 66,33 C66,36.8650937 58.836,40 50,40 L50,40 L50,40 Z M50,50 C40.43,50 34,46.5603517 34,43.3493205 L34,37 C34.96,38.0017586 36.338,38.891287 38.092,39.6207834 C41.298,40.9529976 45.528,41.6866507 50,41.6866507 C54.472,41.6866507 58.702,40.9529976 61.908,39.6207834 C63.662,38.891287 65.04,38.0017586 66,37 L66,43.3493205 C66,46.5603517 59.57,50 50,50 L50,50 L50,50 Z M34,47 C36.758,49.8997467 42.808,51.8691431 50,51.8691431 C57.192,51.8691431 63.242,49.8997467 66,47 L66,55.2460954 C66,58.506965 59.57,62 50,62 C40.43,62 34,58.506965 34,55.2460954 L34,47 L34,47 Z M50,23 C45.3766667,23 40.9829167,23.8013672 37.6282292,25.2601562 C31.8609375,27.7628711 31,31.3789062 31,33.3125 L31,66.6875 C31,68.6210938 31.8609375,72.2369141 37.6282292,74.7396289 C40.9829167,76.1986328 45.3766667,77 50,77 C54.6233333,77 59.0151042,76.1986328 62.3717708,74.7396289 C68.1390625,72.2369141 69,68.6210938 69,66.6875 L69,33.3125 C69,31.3789062 68.1390625,27.7628711 62.3717708,25.2601562 C59.0151042,23.8013672 54.6233333,23 50,23 L50,23 Z" id="Fill-160" fill="#268069"></path>
                </g>
                <g id="Oval-4-+-Fill-81" transform="translate(425.000000, 50.000000)" sketch:type="MSShapeGroup">
                    <path d="M25,50 C38.8071194,50 50,38.8071194 50,25 C50,11.1928806 38.8071194,0 25,0 C11.1928806,0 0,11.1928806 0,25 C0,38.8071194 11.1928806,50 25,50 L25,50 Z" id="Oval-4" fill="#F8F5F0"></path>
                    <path d="M36,16.6428571 C34.8106875,15.0384226 32.9186489,14 30.7865754,14 C28.8934506,14 27.1903986,14.8191756 26,16.1263988 C26.0043445,16.1517262 26.0076029,16.1759524 26.0076029,16.202381 L26.0076029,31.974622 C27.1980015,30.6730149 28.8977952,29.8571429 30.7865754,29.8571429 C32.9186489,29.8571429 34.8106875,30.8955655 36,32.5 L36,16.6428571 L36,16.6428571 Z M24.9923971,31.974622 L24.9923971,16.202381 C24.9923971,16.1759524 24.9956555,16.1517262 25,16.1263988 C23.8096014,14.8191756 22.1065494,14 20.2134246,14 C18.0813511,14 16.1893125,15.0384226 15,16.6428571 L15,32.5 C16.1893125,30.8955655 18.0813511,29.8571429 20.2134246,29.8571429 C22.1022048,29.8571429 23.8019985,30.6730149 24.9923971,31.974622 L24.9923971,31.974622 L24.9923971,31.974622 Z M37,16.4782609 L37,32.1304348 C37,32.5042391 36.7567308,32.8369565 36.3951442,32.9554348 C36.3033654,32.9858696 36.209375,33 36.1153846,33 C35.8422596,33 35.5779808,32.8759783 35.4076923,32.6532609 C34.3096635,31.2152174 32.6333173,30.3913043 30.8076923,30.3913043 C28.9820673,30.3913043 27.3057212,31.2152174 26.2076923,32.6532609 C26.0396154,32.8717391 25.7786538,33 25.5,33 C25.2213462,33 24.9603846,32.8717391 24.7923077,32.6532609 C23.6942788,31.2152174 22.0179327,30.3913043 20.1923077,30.3913043 C18.3666827,30.3913043 16.6903365,31.2152174 15.5923077,32.6532609 C15.4220192,32.8759783 15.1577404,33 14.8846154,33 C14.790625,33 14.6966346,32.9858696 14.6048558,32.9554348 C14.2432692,32.8369565 14,32.5042391 14,32.1304348 L14,16.4782609 C14,16.2902174 14.0619231,16.1065217 14.1769231,15.9553261 C14.8636058,15.058587 15.7614904,14.3152174 16.7754808,13.8054348 C17.8248558,13.2782609 19.0069231,13 20.1923077,13 C21.3776923,13 22.5597596,13.2782609 23.6091346,13.8054348 C24.3035577,14.1543478 24.9449038,14.6141304 25.5,15.1576087 C26.0550962,14.6141304 26.6964423,14.1543478 27.3908654,13.8054348 C28.4402404,13.2782609 29.6223077,13 30.8076923,13 C31.9930769,13 33.1751442,13.2782609 34.2245192,13.8054348 C35.2385096,14.3152174 36.1363942,15.058587 36.8230769,15.9553261 C36.9380769,16.1065217 37,16.2902174 37,16.4782609 L37,16.4782609 L37,16.4782609 Z M28.125,37.5 L22.875,37.5 C22.3915625,37.5 22,37.1108696 22,36.6304348 L22,35.7608696 L12.375,35.7608696 C11.8915625,35.7608696 11.5,35.3717391 11.5,34.8913043 L11.5,18.3695652 C11.5,17.8891304 11.8915625,17.5 12.375,17.5 C12.8584375,17.5 13.25,17.8891304 13.25,18.3695652 L13.25,34.0217391 L22.875,34.0217391 C23.3584375,34.0217391 23.75,34.4108696 23.75,34.8913043 L23.75,35.7608696 L27.25,35.7608696 L27.25,34.8913043 C27.25,34.4108696 27.6415625,34.0217391 28.125,34.0217391 L37.75,34.0217391 L37.75,18.3695652 C37.75,17.8891304 38.1415625,17.5 38.625,17.5 C39.1084375,17.5 39.5,17.8891304 39.5,18.3695652 L39.5,34.8913043 C39.5,35.3717391 39.1084375,35.7608696 38.625,35.7608696 L29,35.7608696 L29,36.6304348 C29,37.1108696 28.6084375,37.5 28.125,37.5 L28.125,37.5 L28.125,37.5 Z" id="Fill-81" opacity="0.7" fill="#ABA79F"></path>
                </g>
                <g id="Oval-4-+-Fill-62-+-Oval-42" transform="translate(275.000000, 125.000000)" sketch:type="MSShapeGroup">
                    <path d="M25,50 C38.8071194,50 50,38.8071194 50,25 C50,11.1928806 38.8071194,0 25,0 C11.1928806,0 0,11.1928806 0,25 C0,38.8071194 11.1928806,50 25,50 L25,50 Z" id="Oval-4" fill="#5CCC5C"></path>
                    <path d="M28,10 L27,10 L27,16.0262318 L23.0000002,16.0262318 L23.0000002,10 L22,10 C20.2878435,11.2886776 18.5,13.1897953 18.5,15.5 C18.5,17.591306 19.5580232,18.7077918 21,20 L21,35.5 C21,38.0961852 22.4074973,40 25,40 C27.5925027,40 29,38.0961852 29,35.5 L29,20 C30.4419768,18.7077918 32,17.591306 32,15.5 C32,13.1897953 29.712274,11.2886776 28,10 L28,10 Z" id="Path" fill="#268069"></path>
                    <rect id="Rectangle-77" fill="#A6C776" x="24" y="34" width="2" height="2"></rect>
                </g>
                <g id="Oval-4-+-Fill-160" transform="translate(350.000000, 125.000000)" sketch:type="MSShapeGroup">
                    <path d="M25,50 C38.8071194,50 50,38.8071194 50,25 C50,11.1928806 38.8071194,0 25,0 C11.1928806,0 0,11.1928806 0,25 C0,38.8071194 11.1928806,50 25,50 L25,50 Z" id="Oval-4" fill="#5CCC5C"></path>
                    <path d="M24.3975904,37.0481928 C20.0552315,37.0481928 16.5345593,35.5297721 16.5345593,33.6576784 L16.5345593,29.5180723 C17.8899493,30.9737684 20.8631579,31.9624212 24.3975904,31.9624212 C27.9320228,31.9624212 30.9052315,30.9737684 32.2606214,29.5180723 L32.2606214,33.6576784 C32.2606214,35.5297721 28.7399493,37.0481928 24.3975904,37.0481928 L24.3975904,37.0481928 L24.3975904,37.0481928 Z M24.3975904,19.9799197 C20.0552315,19.9799197 16.5345593,18.4061716 16.5345593,16.4658635 C16.5345593,14.5254455 20.0552315,12.9518072 24.3975904,12.9518072 C28.7399493,12.9518072 32.2606214,14.5254455 32.2606214,16.4658635 C32.2606214,18.4061716 28.7399493,19.9799197 24.3975904,19.9799197 L24.3975904,19.9799197 L24.3975904,19.9799197 Z M24.3975904,25 C19.6945149,25 16.5345593,23.2732689 16.5345593,21.6613055 L16.5345593,18.4738956 C17.0063412,18.9767864 17.6835447,19.4233368 18.5455295,19.7895499 C20.1210843,20.4583321 22.1998732,20.8266319 24.3975904,20.8266319 C26.5953075,20.8266319 28.6740964,20.4583321 30.2496512,19.7895499 C31.111636,19.4233368 31.7888396,18.9767864 32.2606214,18.4738956 L32.2606214,21.6613055 C32.2606214,23.2732689 29.1006658,25 24.3975904,25 L24.3975904,25 L24.3975904,25 Z M16.5345593,23.4939759 C17.8899493,24.9496721 20.8631579,25.9383248 24.3975904,25.9383248 C27.9320228,25.9383248 30.9052315,24.9496721 32.2606214,23.4939759 L32.2606214,27.633582 C32.2606214,29.2705647 29.1006658,31.0240964 24.3975904,31.0240964 C19.6945149,31.0240964 16.5345593,29.2705647 16.5345593,27.633582 L16.5345593,23.4939759 L16.5345593,23.4939759 Z M24.3975904,11.4457831 C22.125502,11.4457831 19.96624,11.8480759 18.3176142,12.5803997 C15.4833396,13.8367827 15.060241,15.6520614 15.060241,16.622741 L15.060241,33.377259 C15.060241,34.3479386 15.4833396,36.1631095 18.3176142,37.4194924 C19.96624,38.1519241 22.125502,38.5542169 24.3975904,38.5542169 C26.6696787,38.5542169 28.8279681,38.1519241 30.4775665,37.4194924 C33.3118411,36.1631095 33.7349398,34.3479386 33.7349398,33.377259 L33.7349398,16.622741 C33.7349398,15.6520614 33.3118411,13.8367827 30.4775665,12.5803997 C28.8279681,11.8480759 26.6696787,11.4457831 24.3975904,11.4457831 L24.3975904,11.4457831 Z" id="Fill-160" fill="#268069"></path>
                </g>
                <g id="Oval-4-+-Fill-81" transform="translate(425.000000, 125.000000)" sketch:type="MSShapeGroup">
                    <path d="M25,50 C38.8071194,50 50,38.8071194 50,25 C50,11.1928806 38.8071194,0 25,0 C11.1928806,0 0,11.1928806 0,25 C0,38.8071194 11.1928806,50 25,50 L25,50 Z" id="Oval-4" fill="#5CCC5C"></path>
                    <path d="M36,16.6428571 C34.8106875,15.0384226 32.9186489,14 30.7865754,14 C28.8934506,14 27.1903986,14.8191756 26,16.1263988 C26.0043445,16.1517262 26.0076029,16.1759524 26.0076029,16.202381 L26.0076029,31.974622 C27.1980015,30.6730149 28.8977952,29.8571429 30.7865754,29.8571429 C32.9186489,29.8571429 34.8106875,30.8955655 36,32.5 L36,16.6428571 L36,16.6428571 Z M24.9923971,31.974622 L24.9923971,16.202381 C24.9923971,16.1759524 24.9956555,16.1517262 25,16.1263988 C23.8096014,14.8191756 22.1065494,14 20.2134246,14 C18.0813511,14 16.1893125,15.0384226 15,16.6428571 L15,32.5 C16.1893125,30.8955655 18.0813511,29.8571429 20.2134246,29.8571429 C22.1022048,29.8571429 23.8019985,30.6730149 24.9923971,31.974622 L24.9923971,31.974622 L24.9923971,31.974622 Z M37,16.4782609 L37,32.1304348 C37,32.5042391 36.7567308,32.8369565 36.3951442,32.9554348 C36.3033654,32.9858696 36.209375,33 36.1153846,33 C35.8422596,33 35.5779808,32.8759783 35.4076923,32.6532609 C34.3096635,31.2152174 32.6333173,30.3913043 30.8076923,30.3913043 C28.9820673,30.3913043 27.3057212,31.2152174 26.2076923,32.6532609 C26.0396154,32.8717391 25.7786538,33 25.5,33 C25.2213462,33 24.9603846,32.8717391 24.7923077,32.6532609 C23.6942788,31.2152174 22.0179327,30.3913043 20.1923077,30.3913043 C18.3666827,30.3913043 16.6903365,31.2152174 15.5923077,32.6532609 C15.4220192,32.8759783 15.1577404,33 14.8846154,33 C14.790625,33 14.6966346,32.9858696 14.6048558,32.9554348 C14.2432692,32.8369565 14,32.5042391 14,32.1304348 L14,16.4782609 C14,16.2902174 14.0619231,16.1065217 14.1769231,15.9553261 C14.8636058,15.058587 15.7614904,14.3152174 16.7754808,13.8054348 C17.8248558,13.2782609 19.0069231,13 20.1923077,13 C21.3776923,13 22.5597596,13.2782609 23.6091346,13.8054348 C24.3035577,14.1543478 24.9449038,14.6141304 25.5,15.1576087 C26.0550962,14.6141304 26.6964423,14.1543478 27.3908654,13.8054348 C28.4402404,13.2782609 29.6223077,13 30.8076923,13 C31.9930769,13 33.1751442,13.2782609 34.2245192,13.8054348 C35.2385096,14.3152174 36.1363942,15.058587 36.8230769,15.9553261 C36.9380769,16.1065217 37,16.2902174 37,16.4782609 L37,16.4782609 L37,16.4782609 Z M28.125,37.5 L22.875,37.5 C22.3915625,37.5 22,37.1108696 22,36.6304348 L22,35.7608696 L12.375,35.7608696 C11.8915625,35.7608696 11.5,35.3717391 11.5,34.8913043 L11.5,18.3695652 C11.5,17.8891304 11.8915625,17.5 12.375,17.5 C12.8584375,17.5 13.25,17.8891304 13.25,18.3695652 L13.25,34.0217391 L22.875,34.0217391 C23.3584375,34.0217391 23.75,34.4108696 23.75,34.8913043 L23.75,35.7608696 L27.25,35.7608696 L27.25,34.8913043 C27.25,34.4108696 27.6415625,34.0217391 28.125,34.0217391 L37.75,34.0217391 L37.75,18.3695652 C37.75,17.8891304 38.1415625,17.5 38.625,17.5 C39.1084375,17.5 39.5,17.8891304 39.5,18.3695652 L39.5,34.8913043 C39.5,35.3717391 39.1084375,35.7608696 38.625,35.7608696 L29,35.7608696 L29,36.6304348 C29,37.1108696 28.6084375,37.5 28.125,37.5 L28.125,37.5 L28.125,37.5 Z" id="Fill-81" fill="#268069"></path>
                </g>
                <g id="Oval-2-+-Fill-56" transform="translate(50.000000, 275.000000)" sketch:type="MSShapeGroup">
                    <circle id="Oval-2" fill="#5CCC5C" cx="25" cy="25" r="25"></circle>
                    <path d="M33.9375,29.4583333 L26.21875,29.4583333 C25.9943984,29.4583333 25.8125,29.2811979 25.8125,29.0625 C25.8125,28.8438021 25.9943984,28.6666667 26.21875,28.6666667 L33.9375,28.6666667 C34.1618516,28.6666667 34.34375,28.8438021 34.34375,29.0625 C34.34375,29.2811979 34.1618516,29.4583333 33.9375,29.4583333 L33.9375,29.4583333 Z M33.9375,27.0833333 L26.21875,27.0833333 C25.9943984,27.0833333 25.8125,26.9061979 25.8125,26.6875 C25.8125,26.4688021 25.9943984,26.2916667 26.21875,26.2916667 L33.9375,26.2916667 C34.1618516,26.2916667 34.34375,26.4688021 34.34375,26.6875 C34.34375,26.9061979 34.1618516,27.0833333 33.9375,27.0833333 L33.9375,27.0833333 Z M34.75,33.4166667 L15.25,33.4166667 C14.35625,33.4166667 13.625,32.7041667 13.625,31.8333333 L13.625,23.9166667 L36.375,23.9166667 L36.375,31.8333333 C36.375,32.7041667 35.64375,33.4166667 34.75,33.4166667 L34.75,33.4166667 Z M15.25,17.5833333 L34.75,17.5833333 C35.64375,17.5833333 36.375,18.2957344 36.375,19.1666667 L36.375,20.75 L13.625,20.75 L13.625,19.1666667 C13.625,18.2957344 14.35625,17.5833333 15.25,17.5833333 L15.25,17.5833333 Z M34.75,16 L15.25,16 C13.4579297,16 12,17.4209427 12,19.1666667 L12,31.8333333 C12,33.5789583 13.4579297,35 15.25,35 L34.75,35 C36.5415625,35 38,33.5789583 38,31.8333333 L38,19.1666667 C38,17.4209427 36.5415625,16 34.75,16 L34.75,16 Z" id="Fill-128" fill="#268069"></path>
                </g>
                <g id="Oval-2-+-Fill-59" transform="translate(50.000000, 200.000000)" sketch:type="MSShapeGroup">
                    <circle id="Oval-2" fill="#F8F5F0" cx="25" cy="25" r="25"></circle>
                    <path d="M33.9375,29.4583333 L26.21875,29.4583333 C25.9943984,29.4583333 25.8125,29.2811979 25.8125,29.0625 C25.8125,28.8438021 25.9943984,28.6666667 26.21875,28.6666667 L33.9375,28.6666667 C34.1618516,28.6666667 34.34375,28.8438021 34.34375,29.0625 C34.34375,29.2811979 34.1618516,29.4583333 33.9375,29.4583333 L33.9375,29.4583333 Z M33.9375,27.0833333 L26.21875,27.0833333 C25.9943984,27.0833333 25.8125,26.9061979 25.8125,26.6875 C25.8125,26.4688021 25.9943984,26.2916667 26.21875,26.2916667 L33.9375,26.2916667 C34.1618516,26.2916667 34.34375,26.4688021 34.34375,26.6875 C34.34375,26.9061979 34.1618516,27.0833333 33.9375,27.0833333 L33.9375,27.0833333 Z M34.75,33.4166667 L15.25,33.4166667 C14.35625,33.4166667 13.625,32.7041667 13.625,31.8333333 L13.625,23.9166667 L36.375,23.9166667 L36.375,31.8333333 C36.375,32.7041667 35.64375,33.4166667 34.75,33.4166667 L34.75,33.4166667 Z M15.25,17.5833333 L34.75,17.5833333 C35.64375,17.5833333 36.375,18.2957344 36.375,19.1666667 L36.375,20.75 L13.625,20.75 L13.625,19.1666667 C13.625,18.2957344 14.35625,17.5833333 15.25,17.5833333 L15.25,17.5833333 Z M34.75,16 L15.25,16 C13.4579297,16 12,17.4209427 12,19.1666667 L12,31.8333333 C12,33.5789583 13.4579297,35 15.25,35 L34.75,35 C36.5415625,35 38,33.5789583 38,31.8333333 L38,19.1666667 C38,17.4209427 36.5415625,16 34.75,16 L34.75,16 Z" id="Fill-128" fill="#CECBC2"></path>
                </g>
                <g id="Oval-2-+-Fill-56-+-building" transform="translate(125.000000, 275.000000)" sketch:type="MSShapeGroup">
                    <g id="Oval-2-+-Fill-56" fill="#5CCC5C">
                        <circle id="Oval-2" cx="25" cy="25" r="25"></circle>
                    </g>
                    <g id="building" transform="translate(10.000000, 12.000000)" fill="#268069">
                        <g id="Page-1">
                            <g id="Org-icon">
                                <path d="M0,7.77777778 L0,25 L14.56,25 L14.56,7.77777778 L0,7.77777778 L0,7.77777778 Z M1.12,8.88888889 L1.12,23.8888889 L13.44,23.8888889 L13.44,8.88888889 L1.12,8.88888889 L1.12,8.88888889 Z" id="Rectangle-27"></path>
                                <path d="M13.44,0 L13.44,25 L28,25 L28,0 L13.44,0 L13.44,0 Z M14.56,1.11111111 L14.56,23.8888889 L26.88,23.8888889 L26.88,1.11111111 L14.56,1.11111111 L14.56,1.11111111 Z" id="Rectangle-26"></path>
                                <path d="M16.24,18.8888889 L16.24,24.4444444 L24.64,24.4444444 L24.64,18.8888889 L16.24,18.8888889 L16.24,18.8888889 Z M16.8,19.4444444 L16.8,23.8888889 L24.08,23.8888889 L24.08,19.4444444 L16.8,19.4444444 L16.8,19.4444444 Z" id="Rectangle-43"></path>
                                <path d="M3.36,20.5555556 L3.36,24.4444444 L11.2,24.4444444 L11.2,20.5555556 L3.36,20.5555556 L3.36,20.5555556 Z M3.92,21.1111111 L3.92,23.8888889 L10.64,23.8888889 L10.64,21.1111111 L3.92,21.1111111 L3.92,21.1111111 Z" id="Rectangle-43"></path>
                                <path d="M9.52,19.4444444 L12.88,19.4444444 L12.88,15 L9.52,15 L9.52,19.4444444 L9.52,19.4444444 Z M10.08,15.5555556 L10.08,18.8888889 L12.32,18.8888889 L12.32,15.5555556 L10.08,15.5555556 L10.08,15.5555556 Z" id="Rectangle-28"></path>
                                <path d="M9.52,14.4444444 L12.88,14.4444444 L12.88,10 L9.52,10 L9.52,14.4444444 L9.52,14.4444444 Z M10.08,10.5555556 L10.08,13.8888889 L12.32,13.8888889 L12.32,10.5555556 L10.08,10.5555556 L10.08,10.5555556 Z" id="Rectangle-28"></path>
                                <path d="M5.6,14.4444444 L8.96,14.4444444 L8.96,10 L5.6,10 L5.6,14.4444444 L5.6,14.4444444 Z M6.16,10.5555556 L6.16,13.8888889 L8.4,13.8888889 L8.4,10.5555556 L6.16,10.5555556 L6.16,10.5555556 Z" id="Rectangle-28"></path>
                                <path d="M5.6,19.4444444 L8.96,19.4444444 L8.96,15 L5.6,15 L5.6,19.4444444 L5.6,19.4444444 Z M6.16,15.5555556 L6.16,18.8888889 L8.4,18.8888889 L8.4,15.5555556 L6.16,15.5555556 L6.16,15.5555556 Z" id="Rectangle-28"></path>
                                <path d="M1.68,19.4444444 L5.04,19.4444444 L5.04,15 L1.68,15 L1.68,19.4444444 L1.68,19.4444444 Z M2.24,15.5555556 L2.24,18.8888889 L4.48,18.8888889 L4.48,15.5555556 L2.24,15.5555556 L2.24,15.5555556 Z" id="Rectangle-28"></path>
                                <path d="M1.68,14.4444444 L5.04,14.4444444 L5.04,10 L1.68,10 L1.68,14.4444444 L1.68,14.4444444 Z M2.24,10.5555556 L2.24,13.8888889 L4.48,13.8888889 L4.48,10.5555556 L2.24,10.5555556 L2.24,10.5555556 Z" id="Rectangle-28"></path>
                                <path d="M22.96,11.6666667 L26.32,11.6666667 L26.32,7.22222222 L22.96,7.22222222 L22.96,11.6666667 L22.96,11.6666667 Z M23.52,7.77777778 L23.52,11.1111111 L25.76,11.1111111 L25.76,7.77777778 L23.52,7.77777778 L23.52,7.77777778 Z" id="Rectangle-28"></path>
                                <path d="M22.96,6.66666667 L26.32,6.66666667 L26.32,2.22222222 L22.96,2.22222222 L22.96,6.66666667 L22.96,6.66666667 Z M23.52,2.77777778 L23.52,6.11111111 L25.76,6.11111111 L25.76,2.77777778 L23.52,2.77777778 L23.52,2.77777778 Z" id="Rectangle-28"></path>
                                <path d="M19.04,6.66666667 L22.4,6.66666667 L22.4,2.22222222 L19.04,2.22222222 L19.04,6.66666667 L19.04,6.66666667 Z M19.6,2.77777778 L19.6,6.11111111 L21.84,6.11111111 L21.84,2.77777778 L19.6,2.77777778 L19.6,2.77777778 Z" id="Rectangle-28"></path>
                                <path d="M19.04,11.6666667 L22.4,11.6666667 L22.4,7.22222222 L19.04,7.22222222 L19.04,11.6666667 L19.04,11.6666667 Z M19.6,7.77777778 L19.6,11.1111111 L21.84,11.1111111 L21.84,7.77777778 L19.6,7.77777778 L19.6,7.77777778 Z" id="Rectangle-28"></path>
                                <path d="M15.12,11.6666667 L18.48,11.6666667 L18.48,7.22222222 L15.12,7.22222222 L15.12,11.6666667 L15.12,11.6666667 Z M15.68,7.77777778 L15.68,11.1111111 L17.92,11.1111111 L17.92,7.77777778 L15.68,7.77777778 L15.68,7.77777778 Z" id="Rectangle-28"></path>
                                <path d="M22.96,16.6666667 L26.32,16.6666667 L26.32,12.2222222 L22.96,12.2222222 L22.96,16.6666667 L22.96,16.6666667 Z M23.52,12.7777778 L23.52,16.1111111 L25.76,16.1111111 L25.76,12.7777778 L23.52,12.7777778 L23.52,12.7777778 Z" id="Rectangle-28"></path>
                                <path d="M19.04,16.6666667 L22.4,16.6666667 L22.4,12.2222222 L19.04,12.2222222 L19.04,16.6666667 L19.04,16.6666667 Z M19.6,12.7777778 L19.6,16.1111111 L21.84,16.1111111 L21.84,12.7777778 L19.6,12.7777778 L19.6,12.7777778 Z" id="Rectangle-28"></path>
                                <path d="M15.12,16.6666667 L18.48,16.6666667 L18.48,12.2222222 L15.12,12.2222222 L15.12,16.6666667 L15.12,16.6666667 Z M15.68,12.7777778 L15.68,16.1111111 L17.92,16.1111111 L17.92,12.7777778 L15.68,12.7777778 L15.68,12.7777778 Z" id="Rectangle-28"></path>
                                <path d="M15.12,6.66666667 L18.48,6.66666667 L18.48,2.22222222 L15.12,2.22222222 L15.12,6.66666667 L15.12,6.66666667 Z M15.68,2.77777778 L15.68,6.11111111 L17.92,6.11111111 L17.92,2.77777778 L15.68,2.77777778 L15.68,2.77777778 Z" id="Rectangle-28"></path>
                            </g>
                        </g>
                    </g>
                </g>
                <g id="Oval-2-+-Fill-57" transform="translate(200.000000, 275.000000)" sketch:type="MSShapeGroup">
                    <circle id="Oval-2" fill="#5CCC5C" cx="25" cy="25" r="25"></circle>
                    <path d="M25.6512267,35.4385326 C22.1989261,35.4385326 19.4009513,32.6405578 19.4009513,29.1882573 L19.4009513,24.5005507 L31.9015021,24.5005507 L31.9015021,29.1882573 C31.9015021,32.6405578 29.1035272,35.4385326 25.6512267,35.4385326 L25.6512267,35.4385326 Z M25.6512267,16.6877065 C29.1035272,16.6877065 31.9015021,19.4855837 31.9015021,22.9379819 L31.9015021,23.7192663 L19.4009513,23.7192663 L19.4009513,22.9379819 C19.4009513,19.4855837 22.1989261,16.6877065 25.6512267,16.6877065 L25.6512267,16.6877065 Z M37.870515,33.2753514 L33.4533282,29.5945252 C33.4601645,29.4596559 33.4640709,29.3248844 33.4640709,29.1882573 L33.4640709,27.6256884 L37.370493,27.6256884 C37.8021527,27.6256884 38.1517774,27.275966 38.1517774,26.844404 C38.1517774,26.4127444 37.8021527,26.0631196 37.370493,26.0631196 L33.4640709,26.0631196 L33.4640709,24.2817911 L37.6175742,22.8979411 C38.0267719,22.7611186 38.2474848,22.318814 38.1117366,21.9096163 C37.9750118,21.5004186 37.5326095,21.2797057 37.1235095,21.4154539 L33.4562581,22.638164 C33.3537145,19.9261305 31.8624378,17.5637217 29.6738649,16.243351 C30.6631663,12.8280638 37.6850576,12.7812844 37.7611352,12.7812844 C37.976965,12.7812844 38.1517774,12.6063744 38.1517774,12.3906422 C38.1517774,12.1748124 37.976965,12 37.7611352,12 C37.4261595,12 30.23053,12.0488303 28.9668025,15.8654047 C27.9589455,15.3916533 26.8358492,15.1251377 25.6512267,15.1251377 C24.4666042,15.1251377 23.3435078,15.3916533 22.3356509,15.8654047 C21.0718257,12.0488303 13.8762939,12 13.5413182,12 C13.3254883,12 13.1506759,12.1748124 13.1506759,12.3906422 C13.1506759,12.6063744 13.3254883,12.7812844 13.5413182,12.7812844 C13.6174934,12.7812844 20.6402637,12.8242551 21.6286862,16.243351 C19.4400155,17.5627451 17.9487389,19.9261305 17.8461953,22.638164 L14.1790416,21.4154539 C13.7698438,21.2797057 13.3275392,21.5004186 13.1907168,21.9096163 C13.0549686,22.318814 13.2756815,22.7611186 13.6849768,22.8979411 L17.8383825,24.2817911 L17.8383825,26.0631196 L13.9319604,26.0631196 C13.5003007,26.0631196 13.1506759,26.4127444 13.1506759,26.844404 C13.1506759,27.275966 13.5003007,27.6256884 13.9319604,27.6256884 L17.8383825,27.6256884 L17.8383825,29.1882573 C17.8383825,29.3248844 17.8422889,29.4596559 17.8490275,29.5945252 L13.4319383,33.2753514 C13.0998925,33.5517308 13.0559452,34.0449166 13.331348,34.3759858 C13.4866282,34.5615409 13.7083177,34.6572482 13.9319604,34.6572482 C14.108726,34.6572482 14.2864682,34.5976753 14.4319824,34.4765762 L18.1518728,31.375756 C19.1011334,34.6220904 22.1022422,37.0011015 25.6512267,37.0011015 C29.2002112,37.0011015 32.20132,34.6220904 33.1505805,31.375756 L36.870471,34.4765762 C37.0169618,34.5976753 37.1937274,34.6572482 37.370493,34.6572482 C37.5941357,34.6572482 37.8159228,34.5615409 37.9711054,34.3759858 C38.2465082,34.0449166 38.2026586,33.5517308 37.870515,33.2753514 L37.870515,33.2753514 Z" id="Fill-48" fill="#268069"></path>
                </g>
                <g id="Oval-2-+-Fill-56-+-building-2" transform="translate(125.000000, 200.000000)" sketch:type="MSShapeGroup">
                    <g id="Oval-2-+-Fill-56" fill="#F8F5F0">
                        <circle id="Oval-2" cx="25" cy="25" r="25"></circle>
                    </g>
                    <g id="building" transform="translate(10.000000, 12.000000)" fill="#CECBC2">
                        <g id="Page-1">
                            <g id="Org-icon">
                                <path d="M0,7.77777778 L0,25 L14.56,25 L14.56,7.77777778 L0,7.77777778 L0,7.77777778 Z M1.12,8.88888889 L1.12,23.8888889 L13.44,23.8888889 L13.44,8.88888889 L1.12,8.88888889 L1.12,8.88888889 Z" id="Rectangle-27"></path>
                                <path d="M13.44,0 L13.44,25 L28,25 L28,0 L13.44,0 L13.44,0 Z M14.56,1.11111111 L14.56,23.8888889 L26.88,23.8888889 L26.88,1.11111111 L14.56,1.11111111 L14.56,1.11111111 Z" id="Rectangle-26"></path>
                                <path d="M16.24,18.8888889 L16.24,24.4444444 L24.64,24.4444444 L24.64,18.8888889 L16.24,18.8888889 L16.24,18.8888889 Z M16.8,19.4444444 L16.8,23.8888889 L24.08,23.8888889 L24.08,19.4444444 L16.8,19.4444444 L16.8,19.4444444 Z" id="Rectangle-43"></path>
                                <path d="M3.36,20.5555556 L3.36,24.4444444 L11.2,24.4444444 L11.2,20.5555556 L3.36,20.5555556 L3.36,20.5555556 Z M3.92,21.1111111 L3.92,23.8888889 L10.64,23.8888889 L10.64,21.1111111 L3.92,21.1111111 L3.92,21.1111111 Z" id="Rectangle-43"></path>
                                <path d="M9.52,19.4444444 L12.88,19.4444444 L12.88,15 L9.52,15 L9.52,19.4444444 L9.52,19.4444444 Z M10.08,15.5555556 L10.08,18.8888889 L12.32,18.8888889 L12.32,15.5555556 L10.08,15.5555556 L10.08,15.5555556 Z" id="Rectangle-28"></path>
                                <path d="M9.52,14.4444444 L12.88,14.4444444 L12.88,10 L9.52,10 L9.52,14.4444444 L9.52,14.4444444 Z M10.08,10.5555556 L10.08,13.8888889 L12.32,13.8888889 L12.32,10.5555556 L10.08,10.5555556 L10.08,10.5555556 Z" id="Rectangle-28"></path>
                                <path d="M5.6,14.4444444 L8.96,14.4444444 L8.96,10 L5.6,10 L5.6,14.4444444 L5.6,14.4444444 Z M6.16,10.5555556 L6.16,13.8888889 L8.4,13.8888889 L8.4,10.5555556 L6.16,10.5555556 L6.16,10.5555556 Z" id="Rectangle-28"></path>
                                <path d="M5.6,19.4444444 L8.96,19.4444444 L8.96,15 L5.6,15 L5.6,19.4444444 L5.6,19.4444444 Z M6.16,15.5555556 L6.16,18.8888889 L8.4,18.8888889 L8.4,15.5555556 L6.16,15.5555556 L6.16,15.5555556 Z" id="Rectangle-28"></path>
                                <path d="M1.68,19.4444444 L5.04,19.4444444 L5.04,15 L1.68,15 L1.68,19.4444444 L1.68,19.4444444 Z M2.24,15.5555556 L2.24,18.8888889 L4.48,18.8888889 L4.48,15.5555556 L2.24,15.5555556 L2.24,15.5555556 Z" id="Rectangle-28"></path>
                                <path d="M1.68,14.4444444 L5.04,14.4444444 L5.04,10 L1.68,10 L1.68,14.4444444 L1.68,14.4444444 Z M2.24,10.5555556 L2.24,13.8888889 L4.48,13.8888889 L4.48,10.5555556 L2.24,10.5555556 L2.24,10.5555556 Z" id="Rectangle-28"></path>
                                <path d="M22.96,11.6666667 L26.32,11.6666667 L26.32,7.22222222 L22.96,7.22222222 L22.96,11.6666667 L22.96,11.6666667 Z M23.52,7.77777778 L23.52,11.1111111 L25.76,11.1111111 L25.76,7.77777778 L23.52,7.77777778 L23.52,7.77777778 Z" id="Rectangle-28"></path>
                                <path d="M22.96,6.66666667 L26.32,6.66666667 L26.32,2.22222222 L22.96,2.22222222 L22.96,6.66666667 L22.96,6.66666667 Z M23.52,2.77777778 L23.52,6.11111111 L25.76,6.11111111 L25.76,2.77777778 L23.52,2.77777778 L23.52,2.77777778 Z" id="Rectangle-28"></path>
                                <path d="M19.04,6.66666667 L22.4,6.66666667 L22.4,2.22222222 L19.04,2.22222222 L19.04,6.66666667 L19.04,6.66666667 Z M19.6,2.77777778 L19.6,6.11111111 L21.84,6.11111111 L21.84,2.77777778 L19.6,2.77777778 L19.6,2.77777778 Z" id="Rectangle-28"></path>
                                <path d="M19.04,11.6666667 L22.4,11.6666667 L22.4,7.22222222 L19.04,7.22222222 L19.04,11.6666667 L19.04,11.6666667 Z M19.6,7.77777778 L19.6,11.1111111 L21.84,11.1111111 L21.84,7.77777778 L19.6,7.77777778 L19.6,7.77777778 Z" id="Rectangle-28"></path>
                                <path d="M15.12,11.6666667 L18.48,11.6666667 L18.48,7.22222222 L15.12,7.22222222 L15.12,11.6666667 L15.12,11.6666667 Z M15.68,7.77777778 L15.68,11.1111111 L17.92,11.1111111 L17.92,7.77777778 L15.68,7.77777778 L15.68,7.77777778 Z" id="Rectangle-28"></path>
                                <path d="M22.96,16.6666667 L26.32,16.6666667 L26.32,12.2222222 L22.96,12.2222222 L22.96,16.6666667 L22.96,16.6666667 Z M23.52,12.7777778 L23.52,16.1111111 L25.76,16.1111111 L25.76,12.7777778 L23.52,12.7777778 L23.52,12.7777778 Z" id="Rectangle-28"></path>
                                <path d="M19.04,16.6666667 L22.4,16.6666667 L22.4,12.2222222 L19.04,12.2222222 L19.04,16.6666667 L19.04,16.6666667 Z M19.6,12.7777778 L19.6,16.1111111 L21.84,16.1111111 L21.84,12.7777778 L19.6,12.7777778 L19.6,12.7777778 Z" id="Rectangle-28"></path>
                                <path d="M15.12,16.6666667 L18.48,16.6666667 L18.48,12.2222222 L15.12,12.2222222 L15.12,16.6666667 L15.12,16.6666667 Z M15.68,12.7777778 L15.68,16.1111111 L17.92,16.1111111 L17.92,12.7777778 L15.68,12.7777778 L15.68,12.7777778 Z" id="Rectangle-28"></path>
                                <path d="M15.12,6.66666667 L18.48,6.66666667 L18.48,2.22222222 L15.12,2.22222222 L15.12,6.66666667 L15.12,6.66666667 Z M15.68,2.77777778 L15.68,6.11111111 L17.92,6.11111111 L17.92,2.77777778 L15.68,2.77777778 L15.68,2.77777778 Z" id="Rectangle-28"></path>
                            </g>
                        </g>
                    </g>
                </g>
                <g id="Oval-2-+-Fill-60" transform="translate(200.000000, 200.000000)" sketch:type="MSShapeGroup">
                    <circle id="Oval-2" fill="#F8F5F0" cx="25" cy="25" r="25"></circle>
                    <path d="M25.6512267,35.4385326 C22.1989261,35.4385326 19.4009513,32.6405578 19.4009513,29.1882573 L19.4009513,24.5005507 L31.9015021,24.5005507 L31.9015021,29.1882573 C31.9015021,32.6405578 29.1035272,35.4385326 25.6512267,35.4385326 L25.6512267,35.4385326 Z M25.6512267,16.6877065 C29.1035272,16.6877065 31.9015021,19.4855837 31.9015021,22.9379819 L31.9015021,23.7192663 L19.4009513,23.7192663 L19.4009513,22.9379819 C19.4009513,19.4855837 22.1989261,16.6877065 25.6512267,16.6877065 L25.6512267,16.6877065 Z M37.870515,33.2753514 L33.4533282,29.5945252 C33.4601645,29.4596559 33.4640709,29.3248844 33.4640709,29.1882573 L33.4640709,27.6256884 L37.370493,27.6256884 C37.8021527,27.6256884 38.1517774,27.275966 38.1517774,26.844404 C38.1517774,26.4127444 37.8021527,26.0631196 37.370493,26.0631196 L33.4640709,26.0631196 L33.4640709,24.2817911 L37.6175742,22.8979411 C38.0267719,22.7611186 38.2474848,22.318814 38.1117366,21.9096163 C37.9750118,21.5004186 37.5326095,21.2797057 37.1235095,21.4154539 L33.4562581,22.638164 C33.3537145,19.9261305 31.8624378,17.5637217 29.6738649,16.243351 C30.6631663,12.8280638 37.6850576,12.7812844 37.7611352,12.7812844 C37.976965,12.7812844 38.1517774,12.6063744 38.1517774,12.3906422 C38.1517774,12.1748124 37.976965,12 37.7611352,12 C37.4261595,12 30.23053,12.0488303 28.9668025,15.8654047 C27.9589455,15.3916533 26.8358492,15.1251377 25.6512267,15.1251377 C24.4666042,15.1251377 23.3435078,15.3916533 22.3356509,15.8654047 C21.0718257,12.0488303 13.8762939,12 13.5413182,12 C13.3254883,12 13.1506759,12.1748124 13.1506759,12.3906422 C13.1506759,12.6063744 13.3254883,12.7812844 13.5413182,12.7812844 C13.6174934,12.7812844 20.6402637,12.8242551 21.6286862,16.243351 C19.4400155,17.5627451 17.9487389,19.9261305 17.8461953,22.638164 L14.1790416,21.4154539 C13.7698438,21.2797057 13.3275392,21.5004186 13.1907168,21.9096163 C13.0549686,22.318814 13.2756815,22.7611186 13.6849768,22.8979411 L17.8383825,24.2817911 L17.8383825,26.0631196 L13.9319604,26.0631196 C13.5003007,26.0631196 13.1506759,26.4127444 13.1506759,26.844404 C13.1506759,27.275966 13.5003007,27.6256884 13.9319604,27.6256884 L17.8383825,27.6256884 L17.8383825,29.1882573 C17.8383825,29.3248844 17.8422889,29.4596559 17.8490275,29.5945252 L13.4319383,33.2753514 C13.0998925,33.5517308 13.0559452,34.0449166 13.331348,34.3759858 C13.4866282,34.5615409 13.7083177,34.6572482 13.9319604,34.6572482 C14.108726,34.6572482 14.2864682,34.5976753 14.4319824,34.4765762 L18.1518728,31.375756 C19.1011334,34.6220904 22.1022422,37.0011015 25.6512267,37.0011015 C29.2002112,37.0011015 32.20132,34.6220904 33.1505805,31.375756 L36.870471,34.4765762 C37.0169618,34.5976753 37.1937274,34.6572482 37.370493,34.6572482 C37.5941357,34.6572482 37.8159228,34.5615409 37.9711054,34.3759858 C38.2465082,34.0449166 38.2026586,33.5517308 37.870515,33.2753514 L37.870515,33.2753514 Z" id="Fill-48" fill="#CECBC2"></path>
                </g>
                <g id="Oval-4-+-Fill-62" transform="translate(750.000000, 50.000000)" sketch:type="MSShapeGroup">
                    <path d="M50,100 C77.6142389,100 100,77.6142389 100,50 C100,22.3857611 77.6142389,0 50,0 C22.3857611,0 0,22.3857611 0,50 C0,77.6142389 22.3857611,100 50,100 L50,100 Z" id="Oval-4" fill="#5CCC5C"></path>
                    <path d="M72,33.2857143 C69.621375,30.0768452 65.8372977,28 61.5731509,28 C57.7869013,28 54.3807972,29.6383512 52,32.2527976 C52.008689,32.3034524 52.0152058,32.3519048 52.0152058,32.4047619 L52.0152058,63.949244 C54.396003,61.3460298 57.7955903,59.7142857 61.5731509,59.7142857 C65.8372977,59.7142857 69.621375,61.791131 72,65 L72,33.2857143 L72,33.2857143 Z M49.9847942,63.949244 L49.9847942,32.4047619 C49.9847942,32.3519048 49.991311,32.3034524 50,32.2527976 C47.6192028,29.6383512 44.2130987,28 40.4268491,28 C36.1627023,28 32.378625,30.0768452 30,33.2857143 L30,65 C32.378625,61.791131 36.1627023,59.7142857 40.4268491,59.7142857 C44.2044097,59.7142857 47.603997,61.3460298 49.9847942,63.949244 L49.9847942,63.949244 L49.9847942,63.949244 Z M74,32.9565217 L74,64.2608696 C74,65.0084783 73.5134615,65.673913 72.7902885,65.9108696 C72.6067308,65.9717391 72.41875,66 72.2307692,66 C71.6845192,66 71.1559615,65.7519565 70.8153846,65.3065217 C68.6193269,62.4304348 65.2666346,60.7826087 61.6153846,60.7826087 C57.9641346,60.7826087 54.6114423,62.4304348 52.4153846,65.3065217 C52.0792308,65.7434783 51.5573077,66 51,66 C50.4426923,66 49.9207692,65.7434783 49.5846154,65.3065217 C47.3885577,62.4304348 44.0358654,60.7826087 40.3846154,60.7826087 C36.7333654,60.7826087 33.3806731,62.4304348 31.1846154,65.3065217 C30.8440385,65.7519565 30.3154808,66 29.7692308,66 C29.58125,66 29.3932692,65.9717391 29.2097115,65.9108696 C28.4865385,65.673913 28,65.0084783 28,64.2608696 L28,32.9565217 C28,32.5804348 28.1238462,32.2130435 28.3538462,31.9106522 C29.7272115,30.1171739 31.5229808,28.6304348 33.5509615,27.6108696 C35.6497115,26.5565217 38.0138462,26 40.3846154,26 C42.7553846,26 45.1195192,26.5565217 47.2182692,27.6108696 C48.6071154,28.3086957 49.8898077,29.2282609 51,30.3152174 C52.1101923,29.2282609 53.3928846,28.3086957 54.7817308,27.6108696 C56.8804808,26.5565217 59.2446154,26 61.6153846,26 C63.9861538,26 66.3502885,26.5565217 68.4490385,27.6108696 C70.4770192,28.6304348 72.2727885,30.1171739 73.6461538,31.9106522 C73.8761538,32.2130435 74,32.5804348 74,32.9565217 L74,32.9565217 L74,32.9565217 Z M56.25,75 L45.75,75 C44.783125,75 44,74.2217391 44,73.2608696 L44,71.5217391 L24.75,71.5217391 C23.783125,71.5217391 23,70.7434783 23,69.7826087 L23,36.7391304 C23,35.7782609 23.783125,35 24.75,35 C25.716875,35 26.5,35.7782609 26.5,36.7391304 L26.5,68.0434783 L45.75,68.0434783 C46.716875,68.0434783 47.5,68.8217391 47.5,69.7826087 L47.5,71.5217391 L54.5,71.5217391 L54.5,69.7826087 C54.5,68.8217391 55.283125,68.0434783 56.25,68.0434783 L75.5,68.0434783 L75.5,36.7391304 C75.5,35.7782609 76.283125,35 77.25,35 C78.216875,35 79,35.7782609 79,36.7391304 L79,69.7826087 C79,70.7434783 78.216875,71.5217391 77.25,71.5217391 L58,71.5217391 L58,73.2608696 C58,74.2217391 57.216875,75 56.25,75 L56.25,75 L56.25,75 Z" id="Fill-81" fill="#268069"></path>
                </g>
                <g id="Oval-4-+-Fill-62" transform="translate(500.000000, 175.000000)" sketch:type="MSShapeGroup">
                    <path d="M50,100 C77.6142389,100 100,77.6142389 100,50 C100,22.3857611 77.6142389,0 50,0 C22.3857611,0 0,22.3857611 0,50 C0,77.6142389 22.3857611,100 50,100 L50,100 Z" id="Oval-4" fill="#F8F5F0"></path>
                    <path d="M57,72 C57,75.1121291 53.590887,78 50.5000002,78 C47.4091134,78 43.9745565,75.1121291 43.9745565,72 L43.9745567,40 C41.1703811,38.1552538 39,34.6167352 39,31 C39,28.2633918 42.2426342,23.8468585 43.9745565,22 L43.9745567,34 L56.9999993,34 L57,22 C58.7321554,23.8468585 62,28.2633918 62,31 C62,34.6167352 59.8041749,38.1552538 56.9999993,40 L57,72 L57,72 Z M57.0000004,20 L55.0000004,20 L55.0000004,32.0524635 L46.0000004,32.0524635 L46.0000004,20 L43.9999999,20 C40.575687,22.5773552 37,26.3795906 37,31 C37,35.1826121 39.1160464,38.4155835 42,41 L42,71 C42,76.1923704 45.3235105,79.9681664 50.5085158,79.9681664 C55.6935212,79.9681664 59,76.1923704 59,71 L59,41 C61.8839536,38.4155835 64,35.1826121 64,31 C64,26.3795906 60.4245484,22.5773552 57.0000004,20 L57.0000004,20 Z" id="Fill-62" fill="#CECBC2"></path>
                    <circle id="Oval-42" stroke="#CECBC2" cx="50.5" cy="70.5" r="3.5"></circle>
                </g>
                <g id="Oval-4-+-Fill-62" transform="translate(625.000000, 175.000000)" sketch:type="MSShapeGroup">
                    <path d="M50,100 C77.6142389,100 100,77.6142389 100,50 C100,22.3857611 77.6142389,0 50,0 C22.3857611,0 0,22.3857611 0,50 C0,77.6142389 22.3857611,100 50,100 L50,100 Z" id="Oval-4" fill="#F8F5F0"></path>
                    <path d="M50,74 C41.164,74 34,70.975306 34,67.2460954 L34,59 C36.758,61.8997467 42.808,63.8691431 50,63.8691431 C57.192,63.8691431 63.242,61.8997467 66,59 L66,67.2460954 C66,70.975306 58.836,74 50,74 L50,74 L50,74 Z M50,40 C41.164,40 34,36.8650937 34,33 C34,29.1346875 41.164,26 50,26 C58.836,26 66,29.1346875 66,33 C66,36.8650937 58.836,40 50,40 L50,40 L50,40 Z M50,50 C40.43,50 34,46.5603517 34,43.3493205 L34,37 C34.96,38.0017586 36.338,38.891287 38.092,39.6207834 C41.298,40.9529976 45.528,41.6866507 50,41.6866507 C54.472,41.6866507 58.702,40.9529976 61.908,39.6207834 C63.662,38.891287 65.04,38.0017586 66,37 L66,43.3493205 C66,46.5603517 59.57,50 50,50 L50,50 L50,50 Z M34,47 C36.758,49.8997467 42.808,51.8691431 50,51.8691431 C57.192,51.8691431 63.242,49.8997467 66,47 L66,55.2460954 C66,58.506965 59.57,62 50,62 C40.43,62 34,58.506965 34,55.2460954 L34,47 L34,47 Z M50,23 C45.3766667,23 40.9829167,23.8013672 37.6282292,25.2601562 C31.8609375,27.7628711 31,31.3789062 31,33.3125 L31,66.6875 C31,68.6210938 31.8609375,72.2369141 37.6282292,74.7396289 C40.9829167,76.1986328 45.3766667,77 50,77 C54.6233333,77 59.0151042,76.1986328 62.3717708,74.7396289 C68.1390625,72.2369141 69,68.6210938 69,66.6875 L69,33.3125 C69,31.3789062 68.1390625,27.7628711 62.3717708,25.2601562 C59.0151042,23.8013672 54.6233333,23 50,23 L50,23 Z" id="Fill-160" fill="#CECBC2"></path>
                </g>
                <g id="Oval-4-+-Fill-62" transform="translate(750.000000, 175.000000)" sketch:type="MSShapeGroup">
                    <path d="M50,100 C77.6142389,100 100,77.6142389 100,50 C100,22.3857611 77.6142389,0 50,0 C22.3857611,0 0,22.3857611 0,50 C0,77.6142389 22.3857611,100 50,100 L50,100 Z" id="Oval-4" fill="#F8F5F0"></path>
                    <path d="M72,31.2857143 C69.621375,28.0768452 65.8372977,26 61.5731509,26 C57.7869013,26 54.3807972,27.6383512 52,30.2527976 C52.008689,30.3034524 52.0152058,30.3519048 52.0152058,30.4047619 L52.0152058,61.949244 C54.396003,59.3460298 57.7955903,57.7142857 61.5731509,57.7142857 C65.8372977,57.7142857 69.621375,59.791131 72,63 L72,31.2857143 L72,31.2857143 Z M49.9847942,61.949244 L49.9847942,30.4047619 C49.9847942,30.3519048 49.991311,30.3034524 50,30.2527976 C47.6192028,27.6383512 44.2130987,26 40.4268491,26 C36.1627023,26 32.378625,28.0768452 30,31.2857143 L30,63 C32.378625,59.791131 36.1627023,57.7142857 40.4268491,57.7142857 C44.2044097,57.7142857 47.603997,59.3460298 49.9847942,61.949244 L49.9847942,61.949244 L49.9847942,61.949244 Z M74,30.9565217 L74,62.2608696 C74,63.0084783 73.5134615,63.673913 72.7902885,63.9108696 C72.6067308,63.9717391 72.41875,64 72.2307692,64 C71.6845192,64 71.1559615,63.7519565 70.8153846,63.3065217 C68.6193269,60.4304348 65.2666346,58.7826087 61.6153846,58.7826087 C57.9641346,58.7826087 54.6114423,60.4304348 52.4153846,63.3065217 C52.0792308,63.7434783 51.5573077,64 51,64 C50.4426923,64 49.9207692,63.7434783 49.5846154,63.3065217 C47.3885577,60.4304348 44.0358654,58.7826087 40.3846154,58.7826087 C36.7333654,58.7826087 33.3806731,60.4304348 31.1846154,63.3065217 C30.8440385,63.7519565 30.3154808,64 29.7692308,64 C29.58125,64 29.3932692,63.9717391 29.2097115,63.9108696 C28.4865385,63.673913 28,63.0084783 28,62.2608696 L28,30.9565217 C28,30.5804348 28.1238462,30.2130435 28.3538462,29.9106522 C29.7272115,28.1171739 31.5229808,26.6304348 33.5509615,25.6108696 C35.6497115,24.5565217 38.0138462,24 40.3846154,24 C42.7553846,24 45.1195192,24.5565217 47.2182692,25.6108696 C48.6071154,26.3086957 49.8898077,27.2282609 51,28.3152174 C52.1101923,27.2282609 53.3928846,26.3086957 54.7817308,25.6108696 C56.8804808,24.5565217 59.2446154,24 61.6153846,24 C63.9861538,24 66.3502885,24.5565217 68.4490385,25.6108696 C70.4770192,26.6304348 72.2727885,28.1171739 73.6461538,29.9106522 C73.8761538,30.2130435 74,30.5804348 74,30.9565217 L74,30.9565217 L74,30.9565217 Z M56.25,73 L45.75,73 C44.783125,73 44,72.2217391 44,71.2608696 L44,69.5217391 L24.75,69.5217391 C23.783125,69.5217391 23,68.7434783 23,67.7826087 L23,34.7391304 C23,33.7782609 23.783125,33 24.75,33 C25.716875,33 26.5,33.7782609 26.5,34.7391304 L26.5,66.0434783 L45.75,66.0434783 C46.716875,66.0434783 47.5,66.8217391 47.5,67.7826087 L47.5,69.5217391 L54.5,69.5217391 L54.5,67.7826087 C54.5,66.8217391 55.283125,66.0434783 56.25,66.0434783 L75.5,66.0434783 L75.5,34.7391304 C75.5,33.7782609 76.283125,33 77.25,33 C78.216875,33 79,33.7782609 79,34.7391304 L79,67.7826087 C79,68.7434783 78.216875,69.5217391 77.25,69.5217391 L58,69.5217391 L58,71.2608696 C58,72.2217391 57.216875,73 56.25,73 L56.25,73 L56.25,73 Z" id="Fill-81" fill="#CECBC2"></path>
                </g>
                <g id="Oval-2-+-Fill-55" transform="translate(125.000000, 50.000000)" sketch:type="MSShapeGroup">
                    <circle id="Oval-2" fill="#F8F5F0" cx="25" cy="25" r="25"></circle>
                    <path d="M25,12 C24.5338281,12 24.0595312,12.0253906 23.5903125,12.0761719 C22.9128906,12.1492969 22.3532813,12.6367969 22.1877344,13.2979687 L21.5417969,15.8836484 C21.3589844,15.9527109 21.1782031,16.0279687 20.9994531,16.1082031 L18.7142969,14.7371094 C18.4563281,14.5816172 18.1669766,14.5054453 17.8784375,14.5054453 C17.5159609,14.5054453 17.1553125,14.6264062 16.8598672,14.8640625 C16.1264844,15.4541406 15.4541406,16.1264844 14.8640625,16.8597656 C14.4375,17.3909375 14.3867188,18.1303125 14.7371094,18.7142969 L16.1082031,20.9994531 C16.0279687,21.1782031 15.9528125,21.3588828 15.88375,21.5417969 L13.2979687,22.1877344 C12.6367969,22.3531797 12.1493984,22.9128906 12.0761719,23.5903125 C12.0253906,24.0595312 12,24.5338281 12,25 C12,25.4661719 12.0253906,25.9404688 12.0761719,26.4096875 C12.1493984,27.0871094 12.6367969,27.6467187 13.2979687,27.8121641 L15.88375,28.4582031 C15.9528125,28.6410156 16.0279687,28.8217969 16.1082031,29.0005469 L14.7371094,31.2857031 C14.3867188,31.8686719 14.4375,32.6090625 14.8640625,33.1392187 C15.4541406,33.8735156 16.1264844,34.5447422 16.8598672,35.1359375 C17.1553125,35.3735937 17.5159609,35.4944531 17.8784375,35.4944531 C18.1669766,35.4944531 18.4563281,35.4172656 18.7142969,35.2628906 L20.9994531,33.8917969 C21.1782031,33.9720313 21.3589844,34.0471875 21.5417969,34.11625 L22.1877344,36.7020313 C22.3532813,37.3631016 22.9128906,37.8507031 23.5903125,37.9238281 C24.0595312,37.9746094 24.5338281,38 25,38 C25.4661719,38 25.9404688,37.9746094 26.4096875,37.9238281 C27.0871094,37.8507031 27.6468203,37.3631016 27.8122656,36.7020313 L28.4582031,34.11625 C28.6410156,34.0471875 28.8217969,33.9720313 29.0005469,33.8917969 L31.2857031,35.2628906 C31.5446875,35.4172656 31.833125,35.4944531 32.1215625,35.4944531 C32.4841406,35.4944531 32.8446875,35.3735937 33.1402344,35.1359375 C33.8745313,34.5457578 34.5458594,33.8735156 35.1359375,33.1401328 C35.5625,32.6090625 35.6132812,31.8696875 35.2628906,31.2857031 L33.8917969,29.0005469 C33.9720313,28.8217969 34.0471875,28.6410156 34.11625,28.4582031 L36.7020313,27.8121641 C37.3632031,27.6467187 37.8507031,27.0871094 37.9238281,26.4096875 C37.9746094,25.9404688 38,25.4661719 38,25 C38,24.5338281 37.9746094,24.0595312 37.9238281,23.5903125 C37.8507031,22.9128906 37.3632031,22.3531797 36.7020313,22.1877344 L34.11625,21.5417969 C34.0471875,21.3588828 33.9720313,21.1782031 33.8917969,20.9994531 L35.2628906,18.7142969 C35.6122656,18.1303125 35.5625,17.3909375 35.1359375,16.8597656 C34.5458594,16.1264844 33.8745313,15.4551562 33.1402344,14.8640625 C32.8446875,14.6264062 32.4841406,14.5054453 32.1215625,14.5054453 C31.833125,14.5054453 31.5446875,14.5816172 31.2857031,14.7371094 L29.0005469,16.1082031 C28.8217969,16.0279687 28.6410156,15.9527109 28.4582031,15.8836484 L27.8122656,13.2979687 C27.6468203,12.6367969 27.0871094,12.1492969 26.4096875,12.0761719 C25.9404688,12.0253906 25.4661719,12 25,12 L25,12 Z M25,13.625 C25.4174219,13.625 25.8297656,13.6482578 26.2360156,13.6919297 L27.1004141,17.1502344 C27.7960156,17.3360937 28.4551563,17.6123438 29.0635156,17.9657812 L32.1215625,16.1305469 C32.7654688,16.6485156 33.3514844,17.2345312 33.8694531,17.8784375 L32.0342188,20.9364844 C32.3876562,21.5447422 32.6639063,22.2039844 32.8497656,22.8996875 L36.3079688,23.7639844 C36.3517422,24.1702344 36.375,24.5825781 36.375,25 C36.375,25.4174219 36.3517422,25.8297656 36.3079688,26.2359141 L32.8497656,27.1003125 C32.6639063,27.7960156 32.3876562,28.4551562 32.0342188,29.0635156 L33.8694531,32.1215625 C33.3514844,32.7654688 32.7654688,33.3513828 32.1215625,33.8694531 L29.0635156,32.0342188 C28.4551563,32.3876562 27.7960156,32.6639063 27.1004141,32.8497656 L26.2360156,36.3079688 C25.8297656,36.3516406 25.4174219,36.375 25,36.375 C24.5825781,36.375 24.1702344,36.3516406 23.765,36.3079688 L22.8996875,32.8497656 C22.2040859,32.6639063 21.5448438,32.3876562 20.9364844,32.0342188 L17.8784375,33.8694531 C17.2345312,33.3513828 16.6485156,32.7654688 16.1305469,32.1215625 L17.9657812,29.0635156 C17.6123438,28.4541406 17.3360937,27.7960156 17.1502344,27.1003125 L13.6920312,26.2359141 C13.6483594,25.8297656 13.625,25.4174219 13.625,25 C13.625,24.5825781 13.6483594,24.1702344 13.6920312,23.7639844 L17.1502344,22.8996875 C17.3360937,22.2039844 17.6123438,21.5447422 17.9657812,20.9364844 L16.1305469,17.8784375 C16.6485156,17.2345312 17.2345312,16.6485156 17.8784375,16.1305469 L20.9364844,17.9657812 C21.5448438,17.6123438 22.2040859,17.3360937 22.8996875,17.1502344 L23.765,13.6919297 C24.1702344,13.6482578 24.5825781,13.625 25,13.625 L25,13.625 Z M25,20.125 C22.3116406,20.125 20.125,22.3116406 20.125,25 C20.125,27.6883594 22.3116406,29.875 25,29.875 C27.6884609,29.875 29.875,27.6883594 29.875,25 C29.875,22.3116406 27.6884609,20.125 25,20.125 L25,20.125 Z M25,20.9375 C27.2435156,20.9375 29.0625,22.7563828 29.0625,25 C29.0625,27.2435156 27.2435156,29.0625 25,29.0625 C22.7564844,29.0625 20.9375,27.2435156 20.9375,25 C20.9375,22.7563828 22.7564844,20.9375 25,20.9375 L25,20.9375 Z" id="Fill-55" fill="#CECBC2"></path>
                </g>
                <g id="Oval-3-+-Fill-50" transform="translate(50.000000, 50.000000)" sketch:type="MSShapeGroup">
                    <circle id="Oval-3" fill="#F8F5F0" cx="25" cy="25" r="25"></circle>
                    <path d="M29.71875,14 L21.28125,14 C16.1639063,14 12,18.0536473 12,23.0357143 C12,27.4570536 15.2790234,31.1473214 19.59375,31.9214152 L19.59375,35.3571429 C19.59375,36.0214732 20.0050781,36.6211161 20.6357813,36.8746295 C20.8446094,36.9589286 21.0639844,37 21.28125,37 C21.72,37 22.1513672,36.8325313 22.4741016,36.5185402 L27.0430078,32.0714286 L29.71875,32.0714286 C34.8360937,32.0714286 39,28.0176786 39,23.0357143 C39,18.0536473 34.8360937,14 29.71875,14 L29.71875,14 Z M29.71875,15.6428571 C33.9132422,15.6428571 37.3125,18.9532143 37.3125,23.0357143 C37.3125,27.1182143 33.9132422,30.4285714 29.71875,30.4285714 L26.34375,30.4285714 L21.28125,35.3571429 L21.28125,30.4285714 C17.0867578,30.4285714 13.6875,27.1182143 13.6875,23.0357143 C13.6875,18.9532143 17.0867578,15.6428571 21.28125,15.6428571 L29.71875,15.6428571 L29.71875,15.6428571 Z" id="Fill-50" fill="#CECBC2"></path>
                </g>
                <g id="Oval-2-+-Fill-56" transform="translate(125.000000, 125.000000)" sketch:type="MSShapeGroup">
                    <circle id="Oval-2" fill="#5CCC5C" cx="25" cy="25" r="25"></circle>
                    <path d="M25,12 C24.5338281,12 24.0595312,12.0253906 23.5903125,12.0761719 C22.9128906,12.1492969 22.3532813,12.6367969 22.1877344,13.2979687 L21.5417969,15.8836484 C21.3589844,15.9527109 21.1782031,16.0279687 20.9994531,16.1082031 L18.7142969,14.7371094 C18.4563281,14.5816172 18.1669766,14.5054453 17.8784375,14.5054453 C17.5159609,14.5054453 17.1553125,14.6264062 16.8598672,14.8640625 C16.1264844,15.4541406 15.4541406,16.1264844 14.8640625,16.8597656 C14.4375,17.3909375 14.3867188,18.1303125 14.7371094,18.7142969 L16.1082031,20.9994531 C16.0279687,21.1782031 15.9528125,21.3588828 15.88375,21.5417969 L13.2979687,22.1877344 C12.6367969,22.3531797 12.1493984,22.9128906 12.0761719,23.5903125 C12.0253906,24.0595312 12,24.5338281 12,25 C12,25.4661719 12.0253906,25.9404688 12.0761719,26.4096875 C12.1493984,27.0871094 12.6367969,27.6467187 13.2979687,27.8121641 L15.88375,28.4582031 C15.9528125,28.6410156 16.0279687,28.8217969 16.1082031,29.0005469 L14.7371094,31.2857031 C14.3867188,31.8686719 14.4375,32.6090625 14.8640625,33.1392187 C15.4541406,33.8735156 16.1264844,34.5447422 16.8598672,35.1359375 C17.1553125,35.3735937 17.5159609,35.4944531 17.8784375,35.4944531 C18.1669766,35.4944531 18.4563281,35.4172656 18.7142969,35.2628906 L20.9994531,33.8917969 C21.1782031,33.9720313 21.3589844,34.0471875 21.5417969,34.11625 L22.1877344,36.7020313 C22.3532813,37.3631016 22.9128906,37.8507031 23.5903125,37.9238281 C24.0595312,37.9746094 24.5338281,38 25,38 C25.4661719,38 25.9404688,37.9746094 26.4096875,37.9238281 C27.0871094,37.8507031 27.6468203,37.3631016 27.8122656,36.7020313 L28.4582031,34.11625 C28.6410156,34.0471875 28.8217969,33.9720313 29.0005469,33.8917969 L31.2857031,35.2628906 C31.5446875,35.4172656 31.833125,35.4944531 32.1215625,35.4944531 C32.4841406,35.4944531 32.8446875,35.3735937 33.1402344,35.1359375 C33.8745313,34.5457578 34.5458594,33.8735156 35.1359375,33.1401328 C35.5625,32.6090625 35.6132812,31.8696875 35.2628906,31.2857031 L33.8917969,29.0005469 C33.9720313,28.8217969 34.0471875,28.6410156 34.11625,28.4582031 L36.7020313,27.8121641 C37.3632031,27.6467187 37.8507031,27.0871094 37.9238281,26.4096875 C37.9746094,25.9404688 38,25.4661719 38,25 C38,24.5338281 37.9746094,24.0595312 37.9238281,23.5903125 C37.8507031,22.9128906 37.3632031,22.3531797 36.7020313,22.1877344 L34.11625,21.5417969 C34.0471875,21.3588828 33.9720313,21.1782031 33.8917969,20.9994531 L35.2628906,18.7142969 C35.6122656,18.1303125 35.5625,17.3909375 35.1359375,16.8597656 C34.5458594,16.1264844 33.8745313,15.4551562 33.1402344,14.8640625 C32.8446875,14.6264062 32.4841406,14.5054453 32.1215625,14.5054453 C31.833125,14.5054453 31.5446875,14.5816172 31.2857031,14.7371094 L29.0005469,16.1082031 C28.8217969,16.0279687 28.6410156,15.9527109 28.4582031,15.8836484 L27.8122656,13.2979687 C27.6468203,12.6367969 27.0871094,12.1492969 26.4096875,12.0761719 C25.9404688,12.0253906 25.4661719,12 25,12 L25,12 Z M25,13.625 C25.4174219,13.625 25.8297656,13.6482578 26.2360156,13.6919297 L27.1004141,17.1502344 C27.7960156,17.3360937 28.4551563,17.6123438 29.0635156,17.9657812 L32.1215625,16.1305469 C32.7654688,16.6485156 33.3514844,17.2345312 33.8694531,17.8784375 L32.0342188,20.9364844 C32.3876562,21.5447422 32.6639063,22.2039844 32.8497656,22.8996875 L36.3079688,23.7639844 C36.3517422,24.1702344 36.375,24.5825781 36.375,25 C36.375,25.4174219 36.3517422,25.8297656 36.3079688,26.2359141 L32.8497656,27.1003125 C32.6639063,27.7960156 32.3876562,28.4551562 32.0342188,29.0635156 L33.8694531,32.1215625 C33.3514844,32.7654688 32.7654688,33.3513828 32.1215625,33.8694531 L29.0635156,32.0342188 C28.4551563,32.3876562 27.7960156,32.6639063 27.1004141,32.8497656 L26.2360156,36.3079688 C25.8297656,36.3516406 25.4174219,36.375 25,36.375 C24.5825781,36.375 24.1702344,36.3516406 23.765,36.3079688 L22.8996875,32.8497656 C22.2040859,32.6639063 21.5448438,32.3876562 20.9364844,32.0342188 L17.8784375,33.8694531 C17.2345312,33.3513828 16.6485156,32.7654688 16.1305469,32.1215625 L17.9657812,29.0635156 C17.6123438,28.4541406 17.3360937,27.7960156 17.1502344,27.1003125 L13.6920312,26.2359141 C13.6483594,25.8297656 13.625,25.4174219 13.625,25 C13.625,24.5825781 13.6483594,24.1702344 13.6920312,23.7639844 L17.1502344,22.8996875 C17.3360937,22.2039844 17.6123438,21.5447422 17.9657812,20.9364844 L16.1305469,17.8784375 C16.6485156,17.2345312 17.2345312,16.6485156 17.8784375,16.1305469 L20.9364844,17.9657812 C21.5448438,17.6123438 22.2040859,17.3360937 22.8996875,17.1502344 L23.765,13.6919297 C24.1702344,13.6482578 24.5825781,13.625 25,13.625 L25,13.625 Z M25,20.125 C22.3116406,20.125 20.125,22.3116406 20.125,25 C20.125,27.6883594 22.3116406,29.875 25,29.875 C27.6884609,29.875 29.875,27.6883594 29.875,25 C29.875,22.3116406 27.6884609,20.125 25,20.125 L25,20.125 Z M25,20.9375 C27.2435156,20.9375 29.0625,22.7563828 29.0625,25 C29.0625,27.2435156 27.2435156,29.0625 25,29.0625 C22.7564844,29.0625 20.9375,27.2435156 20.9375,25 C20.9375,22.7563828 22.7564844,20.9375 25,20.9375 L25,20.9375 Z" id="Fill-55" fill="#268069"></path>
                </g>
                <g id="Oval-3-+-Fill-51" transform="translate(50.000000, 125.000000)" sketch:type="MSShapeGroup">
                    <circle id="Oval-3" fill="#5CCC5C" cx="25" cy="25" r="25"></circle>
                    <path d="M29.71875,14 L21.28125,14 C16.1639063,14 12,18.0536473 12,23.0357143 C12,27.4570536 15.2790234,31.1473214 19.59375,31.9214152 L19.59375,35.3571429 C19.59375,36.0214732 20.0050781,36.6211161 20.6357813,36.8746295 C20.8446094,36.9589286 21.0639844,37 21.28125,37 C21.72,37 22.1513672,36.8325313 22.4741016,36.5185402 L27.0430078,32.0714286 L29.71875,32.0714286 C34.8360937,32.0714286 39,28.0176786 39,23.0357143 C39,18.0536473 34.8360937,14 29.71875,14 L29.71875,14 Z M29.71875,15.6428571 C33.9132422,15.6428571 37.3125,18.9532143 37.3125,23.0357143 C37.3125,27.1182143 33.9132422,30.4285714 29.71875,30.4285714 L26.34375,30.4285714 L21.28125,35.3571429 L21.28125,30.4285714 C17.0867578,30.4285714 13.6875,27.1182143 13.6875,23.0357143 C13.6875,18.9532143 17.0867578,15.6428571 21.28125,15.6428571 L29.71875,15.6428571 L29.71875,15.6428571 Z" id="Fill-50" fill="#268069"></path>
                </g>
                <g id="Oval-2-+-Fill-58" transform="translate(500.000000, 425.000000)" sketch:type="MSShapeGroup">
                    <circle id="Oval-2" fill="#F8F5F0" cx="50" cy="50" r="50"></circle>
                    <path d="M50,24 C49.0676562,24 48.1190625,24.0507812 47.180625,24.1523438 C45.8257812,24.2985938 44.7065625,25.2735937 44.3754688,26.5959375 L43.0835937,31.7672969 C42.7179688,31.9054219 42.3564062,32.0559375 41.9989063,32.2164062 L37.4285938,29.4742187 C36.9126562,29.1632344 36.3339531,29.0108906 35.756875,29.0108906 C35.0319219,29.0108906 34.310625,29.2528125 33.7197344,29.728125 C32.2529688,30.9082813 30.9082813,32.2529688 29.728125,33.7195312 C28.875,34.781875 28.7734375,36.260625 29.4742187,37.4285937 L32.2164062,41.9989062 C32.0559375,42.3564062 31.905625,42.7177656 31.7675,43.0835937 L26.5959375,44.3754687 C25.2735938,44.7063594 24.2987969,45.8257812 24.1523438,47.180625 C24.0507812,48.1190625 24,49.0676562 24,50 C24,50.9323438 24.0507812,51.8809375 24.1523438,52.819375 C24.2987969,54.1742188 25.2735938,55.2934375 26.5959375,55.6243281 L31.7675,56.9164063 C31.905625,57.2820312 32.0559375,57.6435938 32.2164062,58.0010937 L29.4742187,62.5714062 C28.7734375,63.7373438 28.875,65.218125 29.728125,66.2784375 C30.9082813,67.7470312 32.2529688,69.0894844 33.7197344,70.271875 C34.310625,70.7471875 35.0319219,70.9889062 35.756875,70.9889062 C36.3339531,70.9889062 36.9126562,70.8345312 37.4285938,70.5257813 L41.9989063,67.7835938 C42.3564062,67.9440625 42.7179688,68.094375 43.0835937,68.2325 L44.3754688,73.4040625 C44.7065625,74.7262031 45.8257812,75.7014062 47.180625,75.8476562 C48.1190625,75.9492188 49.0676562,76 50,76 C50.9323438,76 51.8809375,75.9492188 52.819375,75.8476562 C54.1742188,75.7014062 55.2936406,74.7262031 55.6245313,73.4040625 L56.9164063,68.2325 C57.2820313,68.094375 57.6435938,67.9440625 58.0010938,67.7835938 L62.5714063,70.5257813 C63.089375,70.8345312 63.66625,70.9889062 64.243125,70.9889062 C64.9682813,70.9889062 65.689375,70.7471875 66.2804688,70.271875 C67.7490625,69.0915156 69.0917187,67.7470312 70.271875,66.2802656 C71.125,65.218125 71.2265625,63.739375 70.5257813,62.5714062 L67.7835938,58.0010937 C67.9440625,57.6435938 68.094375,57.2820312 68.2325,56.9164063 L73.4040625,55.6243281 C74.7264063,55.2934375 75.7014062,54.1742188 75.8476562,52.819375 C75.9492188,51.8809375 76,50.9323438 76,50 C76,49.0676562 75.9492188,48.1190625 75.8476562,47.180625 C75.7014062,45.8257812 74.7264063,44.7063594 73.4040625,44.3754687 L68.2325,43.0835937 C68.094375,42.7177656 67.9440625,42.3564062 67.7835938,41.9989062 L70.5257813,37.4285937 C71.2245312,36.260625 71.125,34.781875 70.271875,33.7195312 C69.0917187,32.2529688 67.7490625,30.9103125 66.2804688,29.728125 C65.689375,29.2528125 64.9682813,29.0108906 64.243125,29.0108906 C63.66625,29.0108906 63.089375,29.1632344 62.5714063,29.4742187 L58.0010938,32.2164062 C57.6435938,32.0559375 57.2820313,31.9054219 56.9164063,31.7672969 L55.6245313,26.5959375 C55.2936406,25.2735937 54.1742188,24.2985938 52.819375,24.1523438 C51.8809375,24.0507812 50.9323438,24 50,24 L50,24 Z M50,27.25 C50.8348438,27.25 51.6595313,27.2965156 52.4720313,27.3838594 L54.2008281,34.3004688 C55.5920312,34.6721875 56.9103125,35.2246875 58.1270313,35.9315625 L64.243125,32.2610938 C65.5309375,33.2970312 66.7029688,34.4690625 67.7389062,35.756875 L64.0684375,41.8729687 C64.7753125,43.0894844 65.3278125,44.4079688 65.6995312,45.799375 L72.6159375,47.5279687 C72.7034844,48.3404687 72.75,49.1651562 72.75,50 C72.75,50.8348437 72.7034844,51.6595313 72.6159375,52.4718281 L65.6995312,54.200625 C65.3278125,55.5920312 64.7753125,56.9103125 64.0684375,58.1270313 L67.7389062,64.243125 C66.7029688,65.5309375 65.5309375,66.7027656 64.243125,67.7389062 L58.1270313,64.0684375 C56.9103125,64.7753125 55.5920312,65.3278125 54.2008281,65.6995312 L52.4720313,72.6159375 C51.6595313,72.7032812 50.8348438,72.75 50,72.75 C49.1651563,72.75 48.3404687,72.7032812 47.53,72.6159375 L45.799375,65.6995312 C44.4081719,65.3278125 43.0896875,64.7753125 41.8729687,64.0684375 L35.756875,67.7389062 C34.4690625,66.7027656 33.2970313,65.5309375 32.2610938,64.243125 L35.9315625,58.1270313 C35.2246875,56.9082813 34.6721875,55.5920312 34.3004688,54.200625 L27.3840625,52.4718281 C27.2967188,51.6595313 27.25,50.8348437 27.25,50 C27.25,49.1651562 27.2967188,48.3404687 27.3840625,47.5279687 L34.3004688,45.799375 C34.6721875,44.4079688 35.2246875,43.0894844 35.9315625,41.8729687 L32.2610938,35.756875 C33.2970313,34.4690625 34.4690625,33.2970312 35.756875,32.2610938 L41.8729687,35.9315625 C43.0896875,35.2246875 44.4081719,34.6721875 45.799375,34.3004688 L47.53,27.3838594 C48.3404687,27.2965156 49.1651563,27.25 50,27.25 L50,27.25 Z M50,40.25 C44.6232812,40.25 40.25,44.6232812 40.25,50 C40.25,55.3767188 44.6232812,59.75 50,59.75 C55.3769219,59.75 59.75,55.3767188 59.75,50 C59.75,44.6232812 55.3769219,40.25 50,40.25 L50,40.25 Z M50,41.875 C54.4870313,41.875 58.125,45.5127656 58.125,50 C58.125,54.4870313 54.4870313,58.125 50,58.125 C45.5129687,58.125 41.875,54.4870313 41.875,50 C41.875,45.5127656 45.5129687,41.875 50,41.875 L50,41.875 Z" id="Fill-55" fill="#CECBC2"></path>
                </g>
                <g id="Oval-3-+-Fill-52" transform="translate(625.000000, 425.000000)" sketch:type="MSShapeGroup">
                    <circle id="Oval-3" fill="#F8F5F0" cx="50" cy="50" r="50"></circle>
                    <path d="M59.4375,28 L42.5625,28 C32.3278125,28 24,36.1072946 24,46.0714286 C24,54.9141071 30.5580469,62.2946429 39.1875,63.8428304 L39.1875,70.7142857 C39.1875,72.0429464 40.0101563,73.2422321 41.2715625,73.7492589 C41.6892188,73.9178571 42.1279688,74 42.5625,74 C43.44,74 44.3027344,73.6650625 44.9482031,73.0370804 L54.0860156,64.1428571 L59.4375,64.1428571 C69.6721875,64.1428571 78,56.0353571 78,46.0714286 C78,36.1072946 69.6721875,28 59.4375,28 L59.4375,28 Z M59.4375,31.2857143 C67.8264844,31.2857143 74.625,37.9064286 74.625,46.0714286 C74.625,54.2364286 67.8264844,60.8571429 59.4375,60.8571429 L52.6875,60.8571429 L42.5625,70.7142857 L42.5625,60.8571429 C34.1735156,60.8571429 27.375,54.2364286 27.375,46.0714286 C27.375,37.9064286 34.1735156,31.2857143 42.5625,31.2857143 L59.4375,31.2857143 L59.4375,31.2857143 Z" id="Fill-50" fill="#CECBC2"></path>
                </g>
                <g id="Oval-2-+-Fill-57" transform="translate(500.000000, 300.000000)" sketch:type="MSShapeGroup">
                    <circle id="Oval-2" fill="#5CCC5C" cx="50" cy="50" r="50"></circle>
                    <path d="M50,24 C49.0676562,24 48.1190625,24.0507812 47.180625,24.1523438 C45.8257812,24.2985938 44.7065625,25.2735937 44.3754688,26.5959375 L43.0835937,31.7672969 C42.7179688,31.9054219 42.3564062,32.0559375 41.9989063,32.2164062 L37.4285938,29.4742187 C36.9126562,29.1632344 36.3339531,29.0108906 35.756875,29.0108906 C35.0319219,29.0108906 34.310625,29.2528125 33.7197344,29.728125 C32.2529688,30.9082813 30.9082813,32.2529688 29.728125,33.7195312 C28.875,34.781875 28.7734375,36.260625 29.4742187,37.4285937 L32.2164062,41.9989062 C32.0559375,42.3564062 31.905625,42.7177656 31.7675,43.0835937 L26.5959375,44.3754687 C25.2735938,44.7063594 24.2987969,45.8257812 24.1523438,47.180625 C24.0507812,48.1190625 24,49.0676562 24,50 C24,50.9323438 24.0507812,51.8809375 24.1523438,52.819375 C24.2987969,54.1742188 25.2735938,55.2934375 26.5959375,55.6243281 L31.7675,56.9164063 C31.905625,57.2820312 32.0559375,57.6435938 32.2164062,58.0010937 L29.4742187,62.5714062 C28.7734375,63.7373438 28.875,65.218125 29.728125,66.2784375 C30.9082813,67.7470312 32.2529688,69.0894844 33.7197344,70.271875 C34.310625,70.7471875 35.0319219,70.9889062 35.756875,70.9889062 C36.3339531,70.9889062 36.9126562,70.8345312 37.4285938,70.5257813 L41.9989063,67.7835938 C42.3564062,67.9440625 42.7179688,68.094375 43.0835937,68.2325 L44.3754688,73.4040625 C44.7065625,74.7262031 45.8257812,75.7014062 47.180625,75.8476562 C48.1190625,75.9492188 49.0676562,76 50,76 C50.9323438,76 51.8809375,75.9492188 52.819375,75.8476562 C54.1742188,75.7014062 55.2936406,74.7262031 55.6245313,73.4040625 L56.9164063,68.2325 C57.2820313,68.094375 57.6435938,67.9440625 58.0010938,67.7835938 L62.5714063,70.5257813 C63.089375,70.8345312 63.66625,70.9889062 64.243125,70.9889062 C64.9682813,70.9889062 65.689375,70.7471875 66.2804688,70.271875 C67.7490625,69.0915156 69.0917187,67.7470312 70.271875,66.2802656 C71.125,65.218125 71.2265625,63.739375 70.5257813,62.5714062 L67.7835938,58.0010937 C67.9440625,57.6435938 68.094375,57.2820312 68.2325,56.9164063 L73.4040625,55.6243281 C74.7264063,55.2934375 75.7014062,54.1742188 75.8476562,52.819375 C75.9492188,51.8809375 76,50.9323438 76,50 C76,49.0676562 75.9492188,48.1190625 75.8476562,47.180625 C75.7014062,45.8257812 74.7264063,44.7063594 73.4040625,44.3754687 L68.2325,43.0835937 C68.094375,42.7177656 67.9440625,42.3564062 67.7835938,41.9989062 L70.5257813,37.4285937 C71.2245312,36.260625 71.125,34.781875 70.271875,33.7195312 C69.0917187,32.2529688 67.7490625,30.9103125 66.2804688,29.728125 C65.689375,29.2528125 64.9682813,29.0108906 64.243125,29.0108906 C63.66625,29.0108906 63.089375,29.1632344 62.5714063,29.4742187 L58.0010938,32.2164062 C57.6435938,32.0559375 57.2820313,31.9054219 56.9164063,31.7672969 L55.6245313,26.5959375 C55.2936406,25.2735937 54.1742188,24.2985938 52.819375,24.1523438 C51.8809375,24.0507812 50.9323438,24 50,24 L50,24 Z M50,27.25 C50.8348438,27.25 51.6595313,27.2965156 52.4720313,27.3838594 L54.2008281,34.3004688 C55.5920312,34.6721875 56.9103125,35.2246875 58.1270313,35.9315625 L64.243125,32.2610938 C65.5309375,33.2970312 66.7029688,34.4690625 67.7389062,35.756875 L64.0684375,41.8729687 C64.7753125,43.0894844 65.3278125,44.4079688 65.6995312,45.799375 L72.6159375,47.5279687 C72.7034844,48.3404687 72.75,49.1651562 72.75,50 C72.75,50.8348437 72.7034844,51.6595313 72.6159375,52.4718281 L65.6995312,54.200625 C65.3278125,55.5920312 64.7753125,56.9103125 64.0684375,58.1270313 L67.7389062,64.243125 C66.7029688,65.5309375 65.5309375,66.7027656 64.243125,67.7389062 L58.1270313,64.0684375 C56.9103125,64.7753125 55.5920312,65.3278125 54.2008281,65.6995312 L52.4720313,72.6159375 C51.6595313,72.7032812 50.8348438,72.75 50,72.75 C49.1651563,72.75 48.3404687,72.7032812 47.53,72.6159375 L45.799375,65.6995312 C44.4081719,65.3278125 43.0896875,64.7753125 41.8729687,64.0684375 L35.756875,67.7389062 C34.4690625,66.7027656 33.2970313,65.5309375 32.2610938,64.243125 L35.9315625,58.1270313 C35.2246875,56.9082813 34.6721875,55.5920312 34.3004688,54.200625 L27.3840625,52.4718281 C27.2967188,51.6595313 27.25,50.8348437 27.25,50 C27.25,49.1651562 27.2967188,48.3404687 27.3840625,47.5279687 L34.3004688,45.799375 C34.6721875,44.4079688 35.2246875,43.0894844 35.9315625,41.8729687 L32.2610938,35.756875 C33.2970313,34.4690625 34.4690625,33.2970312 35.756875,32.2610938 L41.8729687,35.9315625 C43.0896875,35.2246875 44.4081719,34.6721875 45.799375,34.3004688 L47.53,27.3838594 C48.3404687,27.2965156 49.1651563,27.25 50,27.25 L50,27.25 Z M50,40.25 C44.6232812,40.25 40.25,44.6232812 40.25,50 C40.25,55.3767188 44.6232812,59.75 50,59.75 C55.3769219,59.75 59.75,55.3767188 59.75,50 C59.75,44.6232812 55.3769219,40.25 50,40.25 L50,40.25 Z M50,41.875 C54.4870313,41.875 58.125,45.5127656 58.125,50 C58.125,54.4870313 54.4870313,58.125 50,58.125 C45.5129687,58.125 41.875,54.4870313 41.875,50 C41.875,45.5127656 45.5129687,41.875 50,41.875 L50,41.875 Z" id="Fill-55" fill="#268069"></path>
                </g>
                <g id="Oval-3-+-Fill-53" transform="translate(625.000000, 300.000000)" sketch:type="MSShapeGroup">
                    <circle id="Oval-3" fill="#5CCC5C" cx="50" cy="50" r="50"></circle>
                    <path d="M59.4375,28 L42.5625,28 C32.3278125,28 24,36.1072946 24,46.0714286 C24,54.9141071 30.5580469,62.2946429 39.1875,63.8428304 L39.1875,70.7142857 C39.1875,72.0429464 40.0101563,73.2422321 41.2715625,73.7492589 C41.6892188,73.9178571 42.1279688,74 42.5625,74 C43.44,74 44.3027344,73.6650625 44.9482031,73.0370804 L54.0860156,64.1428571 L59.4375,64.1428571 C69.6721875,64.1428571 78,56.0353571 78,46.0714286 C78,36.1072946 69.6721875,28 59.4375,28 L59.4375,28 Z M59.4375,31.2857143 C67.8264844,31.2857143 74.625,37.9064286 74.625,46.0714286 C74.625,54.2364286 67.8264844,60.8571429 59.4375,60.8571429 L52.6875,60.8571429 L42.5625,70.7142857 L42.5625,60.8571429 C34.1735156,60.8571429 27.375,54.2364286 27.375,46.0714286 C27.375,37.9064286 34.1735156,31.2857143 42.5625,31.2857143 L59.4375,31.2857143 L59.4375,31.2857143 Z" id="Fill-50" fill="#268069"></path>
                </g>
                <g id="Oval-4-+-Fill-62-2" transform="translate(875.000000, 50.000000)" sketch:type="MSShapeGroup">
                    <path d="M50,100 C77.6142389,100 100,77.6142389 100,50 C100,22.3857611 77.6142389,0 50,0 C22.3857611,0 0,22.3857611 0,50 C0,77.6142389 22.3857611,100 50,100 L50,100 Z" id="Oval-4" fill="#5CCC5C"></path>
                    <path d="M63.9419475,39.6403329 C64.1556396,35.9164568 61.1492902,34.8571538 59.0713223,34.8571538 L43,34.8571538 L43,27 L55.9997766,27 C62.3862767,27 67.930745,31.6661268 68.9995533,38.9153287 C68.9995533,38.9153287 69.032421,40.5116826 68.534293,41.2580564 C68.036165,42.0044302 67.1826593,42.2353779 65.8026235,41.7305877 C64.4225877,41.2257976 63.9419475,39.6403329 63.9419475,39.6403329 Z M45,51 L45,37 L55,37 L55,51 L45,51 Z M45.0337803,52 L54.9607794,52 L56,76 L44,76 L45.0337803,52 Z M31,25 L41,25 L41,38 L31,38 L31,25 Z M44,25 C43.6759375,23.6917969 42.545,23 41,23 L33,23 C30.56625,23 29,24.5382812 29,26 L29,37 C29,38.6492188 30.56625,40.1875 33,40 L41,40 C41.88875,40.1875 42.3376465,38.6984863 43,38.0020752 L43,50 L42,74 C42.18875,75.2693359 42.525625,76.2058398 43,77 C43.85125,77.6023242 43.7789687,78 45,78 L55,78 C56.22125,78 56.14875,77.6023242 57,77 C57.4721875,76.2058398 57.81125,75.2693359 58,74 L57,50 L57,37 L59,37 C60.758125,36.8273437 62.25,38.3396289 62,40 C62.25,42.0867188 63.81625,43.625 66,44 L68,44 C69.43375,43.625 71,42.0867188 71,40 C71,31.6582031 63.934375,24.71875 55,25 L44,25 Z" id="Fill-121" fill="#268069"></path>
                    <rect id="Rectangle-68" fill="#268069" x="48" y="69" width="4" height="4"></rect>
                </g>
                <g id="Oval-4-+-Fill-62-4" transform="translate(200.000000, 125.000000)" sketch:type="MSShapeGroup">
                    <path d="M25,50 C38.8071195,50 50,38.8071195 50,25 C50,11.1928805 38.8071195,0 25,0 C11.1928805,0 0,11.1928805 0,25 C0,38.8071195 11.1928805,50 25,50 L25,50 Z" id="Oval-4" fill="#5CCC5C"></path>
                    <path d="M22,13 C21.8379688,12.3458984 20.980957,12.0006104 19.9812012,12.0006104 L15.0484619,12.0006104 C15.0484619,12.0006104 15.0484619,12.2691406 15.0484619,13 L15.0484619,17.9819336 C15.0484619,18.806543 15.0484619,20 15.0484619,20 L19.9812012,20 C20.715332,20 21.0002441,18.9832764 21.0002441,18.9832764 L22,18.9832764 L22,25 L21.4981689,37 C21.5925439,37.634668 21.8894844,39 22.5,39 L27.5,39 C28.110625,39 28.4578711,37.634668 28.5522461,37 L27.9620361,25 L27.9620361,17.9819336 L29.470459,17.9819336 C30.3902588,17.9819336 30.9958496,19.2432861 31.3647461,20 C31.7336426,20.7567139 31.908125,21.8125 33,22 L34,22 C34.716875,21.8125 34.9989014,21.0433594 34.9989014,20 C34.9989014,15.8291016 31.6920166,13 27.9620361,13 L22,13 Z M24,34 L24,36 L26,36 L26,34 L24,34 Z" id="Fill-121" fill="#268069"></path>
                </g>
                <g id="Oval-4-+-Fill-62-5" transform="translate(200.000000, 50.000000)" sketch:type="MSShapeGroup">
                    <path d="M50,25 C50,11.1928805 38.8071195,0 25,0 C11.1928805,0 0,11.1928805 0,25 C0,38.8071195 11.1928805,50 25,50 C38.8071195,50 50,38.8071195 50,25 Z" id="Oval-4" fill="#F8F5F0"></path>
                    <path d="M22,13 C21.8379688,12.3458984 20.980957,12.0006104 19.9812012,12.0006104 L15.0484619,12.0006104 C15.0484619,12.0006104 15.0484619,12.2691406 15.0484619,13 L15.0484619,17.9819336 C15.0484619,18.806543 15.0484619,20 15.0484619,20 L19.9812012,20 C20.715332,20 21.0002441,18.9832764 21.0002441,18.9832764 L22,18.9832764 L22,25 L21.4981689,37 C21.5925439,37.634668 21.8894844,39 22.5,39 L27.5,39 C28.110625,39 28.4578711,37.634668 28.5522461,37 L27.9620361,25 L27.9620361,17.9819336 L29.470459,17.9819336 C30.3902588,17.9819336 30.9958496,19.2432861 31.3647461,20 C31.7336426,20.7567139 31.908125,21.8125 33,22 L34,22 C34.716875,21.8125 34.9989014,21.0433594 34.9989014,20 C34.9989014,15.8291016 31.6920166,13 27.9620361,13 L22,13 Z M24,34 L24,36 L26,36 L26,34 L24,34 Z" id="Fill-121" fill="#CECBC2"></path>
                </g>
                <g id="Oval-4-+-Fill-62-3" transform="translate(875.000000, 175.000000)" sketch:type="MSShapeGroup">
                    <path d="M50,100 C77.6142389,100 100,77.6142389 100,50 C100,22.3857611 77.6142389,0 50,0 C22.3857611,0 0,22.3857611 0,50 C0,77.6142389 22.3857611,100 50,100 L50,100 Z" id="Oval-4" fill="#F8F5F0"></path>
                    <path d="M63.9419475,39.6403329 C64.1556396,35.9164568 61.1492902,34.8571538 59.0713223,34.8571538 L43,34.8571538 L43,27 L55.9997766,27 C62.3862767,27 67.930745,31.6661268 68.9995533,38.9153287 C68.9995533,38.9153287 69.032421,40.5116826 68.534293,41.2580564 C68.036165,42.0044302 67.1826593,42.2353779 65.8026235,41.7305877 C64.4225877,41.2257976 63.9419475,39.6403329 63.9419475,39.6403329 Z M45,51 L45,37 L55,37 L55,51 L45,51 Z M45.0337803,52 L54.9607794,52 L56,76 L44,76 L45.0337803,52 Z M31,25 L41,25 L41,38 L31,38 L31,25 Z M44,25 C43.6759375,23.6917969 42.545,23 41,23 L33,23 C30.56625,23 29,24.5382812 29,26 L29,37 C29,38.6492188 30.56625,40.1875 33,40 L41,40 C41.88875,40.1875 42.3376465,38.6984863 43,38.0020752 L43,50 L42,74 C42.18875,75.2693359 42.525625,76.2058398 43,77 C43.85125,77.6023242 43.7789687,78 45,78 L55,78 C56.22125,78 56.14875,77.6023242 57,77 C57.4721875,76.2058398 57.81125,75.2693359 58,74 L57,50 L57,37 L59,37 C60.758125,36.8273437 62.25,38.3396289 62,40 C62.25,42.0867188 63.81625,43.625 66,44 L68,44 C69.43375,43.625 71,42.0867188 71,40 C71,31.6582031 63.934375,24.71875 55,25 L44,25 Z" id="Fill-121" fill="#CECBC2"></path>
                    <rect id="Rectangle-68" stroke="#CECBC2" x="48" y="69" width="4" height="4"></rect>
                </g>
            </g>
        </g>
    </g>
</svg>