<?xml version="1.0" encoding="UTF-8" standalone="no"?>
<svg width="512px" height="210px" viewBox="0 0 512 210" version="1.1" xmlns="http://www.w3.org/2000/svg" xmlns:xlink="http://www.w3.org/1999/xlink" xmlns:sketch="http://www.bohemiancoding.com/sketch/ns">
    <title>icons</title>
    <description>Created with Sketch (http://www.bohemiancoding.com/sketch)</description>
    <defs></defs>
    <g id="Page-1" stroke="none" stroke-width="1" fill="none" fill-rule="evenodd" sketch:type="MSPage">
        <g id="Oval-4-+-Fill-62-+-Oval-42" sketch:type="MSLayerGroup" transform="translate(0.000000, 26.000000)">
            <path d="M25,50 C38.8071194,50 50,38.8071194 50,25 C50,11.1928806 38.8071194,0 25,0 C11.1928806,0 0,11.1928806 0,25 C0,38.8071194 11.1928806,50 25,50 Z" id="Oval-4" fill="#F8F5F0" sketch:type="MSShapeGroup"></path>
            <path d="M28,10 L27,10 L27,16.0262318 L23.0000002,16.0262318 L23.0000002,10 L22,10 C20.2878435,11.2886776 18.5,13.1897953 18.5,15.5 C18.5,17.591306 19.5580232,18.7077918 21,20 L21,35.5 C21,38.0961852 22.4074973,40 25,40 C27.5925027,40 29,38.0961852 29,35.5 L29,20 C30.4419768,18.7077918 32,17.591306 32,15.5 C32,13.1897953 29.712274,11.2886776 28,10 Z" id="Path" fill="#CECBC2" sketch:type="MSShapeGroup"></path>
            <rect id="Rectangle-77" fill="#F8F5F0" sketch:type="MSShapeGroup" x="24" y="34" width="2" height="2"></rect>
        </g>
        <g id="Oval-4-+-Fill-160" sketch:type="MSLayerGroup" transform="translate(60.000000, 26.000000)">
            <path d="M25,50 C38.8071194,50 50,38.8071194 50,25 C50,11.1928806 38.8071194,0 25,0 C11.1928806,0 0,11.1928806 0,25 C0,38.8071194 11.1928806,50 25,50 Z" id="Oval-4" fill="#F8F5F0" sketch:type="MSShapeGroup"></path>
            <path d="M24.3975904,37.0481928 C20.0552315,37.0481928 16.5345593,35.5297721 16.5345593,33.6576784 L16.5345593,29.5180723 C17.8899493,30.9737684 20.8631579,31.9624212 24.3975904,31.9624212 C27.9320228,31.9624212 30.9052315,30.9737684 32.2606214,29.5180723 L32.2606214,33.6576784 C32.2606214,35.5297721 28.7399493,37.0481928 24.3975904,37.0481928 L24.3975904,37.0481928 Z M24.3975904,19.9799197 C20.0552315,19.9799197 16.5345593,18.4061716 16.5345593,16.4658635 C16.5345593,14.5254455 20.0552315,12.9518072 24.3975904,12.9518072 C28.7399493,12.9518072 32.2606214,14.5254455 32.2606214,16.4658635 C32.2606214,18.4061716 28.7399493,19.9799197 24.3975904,19.9799197 L24.3975904,19.9799197 Z M24.3975904,25 C19.6945149,25 16.5345593,23.2732689 16.5345593,21.6613055 L16.5345593,18.4738956 C17.0063412,18.9767864 17.6835447,19.4233368 18.5455295,19.7895499 C20.1210843,20.4583321 22.1998732,20.8266319 24.3975904,20.8266319 C26.5953075,20.8266319 28.6740964,20.4583321 30.2496512,19.7895499 C31.111636,19.4233368 31.7888396,18.9767864 32.2606214,18.4738956 L32.2606214,21.6613055 C32.2606214,23.2732689 29.1006658,25 24.3975904,25 L24.3975904,25 Z M16.5345593,23.4939759 C17.8899493,24.9496721 20.8631579,25.9383248 24.3975904,25.9383248 C27.9320228,25.9383248 30.9052315,24.9496721 32.2606214,23.4939759 L32.2606214,27.633582 C32.2606214,29.2705647 29.1006658,31.0240964 24.3975904,31.0240964 C19.6945149,31.0240964 16.5345593,29.2705647 16.5345593,27.633582 L16.5345593,23.4939759 L16.5345593,23.4939759 Z M24.3975904,11.4457831 C22.125502,11.4457831 19.96624,11.8480759 18.3176142,12.5803997 C15.4833396,13.8367827 15.060241,15.6520614 15.060241,16.622741 L15.060241,33.377259 C15.060241,34.3479386 15.4833396,36.1631095 18.3176142,37.4194924 C19.96624,38.1519241 22.125502,38.5542169 24.3975904,38.5542169 C26.6696787,38.5542169 28.8279681,38.1519241 30.4775665,37.4194924 C33.3118411,36.1631095 33.7349398,34.3479386 33.7349398,33.377259 L33.7349398,16.622741 C33.7349398,15.6520614 33.3118411,13.8367827 30.4775665,12.5803997 C28.8279681,11.8480759 26.6696787,11.4457831 24.3975904,11.4457831 Z" id="Fill-160" opacity="0.7" fill="#BEB9B0" sketch:type="MSShapeGroup"></path>
        </g>
        <g id="Oval-4-+-Fill-62" sketch:type="MSLayerGroup" transform="translate(192.000000, 0.000000)">
            <path d="M50,100 C77.6142389,100 100,77.6142389 100,50 C100,22.3857611 77.6142389,0 50,0 C22.3857611,0 0,22.3857611 0,50 C0,77.6142389 22.3857611,100 50,100 Z" id="Oval-4" fill="#A6C776" sketch:type="MSShapeGroup"></path>
            <path d="M57,72 C57,75.1121291 53.590887,78 50.5000002,78 C47.4091134,78 43.9745565,75.1121291 43.9745565,72 L43.9745567,40 C41.1703811,38.1552538 39,34.6167352 39,31 C39,28.2633918 42.2426342,23.8468585 43.9745565,22 L43.9745567,34 L56.9999993,34 L57,22 C58.7321554,23.8468585 62,28.2633918 62,31 C62,34.6167352 59.8041749,38.1552538 56.9999993,40 L57,72 Z M57.0000004,20 L55.0000004,20 L55.0000004,32.0524635 L46.0000004,32.0524635 L46.0000004,20 L43.9999999,20 C40.575687,22.5773552 37,26.3795906 37,31 C37,35.1826121 39.1160464,38.4155835 42,41 L42,71 C42,76.1923704 45.3235105,79.9681664 50.5085158,79.9681664 C55.6935212,79.9681664 59,76.1923704 59,71 L59,41 C61.8839536,38.4155835 64,35.1826121 64,31 C64,26.3795906 60.4245484,22.5773552 57.0000004,20 Z" id="Fill-62" fill="#5E743C" sketch:type="MSShapeGroup"></path>
            <circle id="Oval-42" stroke="#5E743C" sketch:type="MSShapeGroup" cx="50.5" cy="70.5" r="3.5"></circle>
        </g>
        <g id="Oval-4-+-Fill-62" sketch:type="MSLayerGroup" transform="translate(302.000000, 0.000000)">
            <path d="M50,100 C77.6142389,100 100,77.6142389 100,50 C100,22.3857611 77.6142389,0 50,0 C22.3857611,0 0,22.3857611 0,50 C0,77.6142389 22.3857611,100 50,100 Z" id="Oval-4" fill="#A6C776" sketch:type="MSShapeGroup"></path>
            <path d="M50,74 C41.164,74 34,70.975306 34,67.2460954 L34,59 C36.758,61.8997467 42.808,63.8691431 50,63.8691431 C57.192,63.8691431 63.242,61.8997467 66,59 L66,67.2460954 C66,70.975306 58.836,74 50,74 L50,74 Z M50,40 C41.164,40 34,36.8650937 34,33 C34,29.1346875 41.164,26 50,26 C58.836,26 66,29.1346875 66,33 C66,36.8650937 58.836,40 50,40 L50,40 Z M50,50 C40.43,50 34,46.5603517 34,43.3493205 L34,37 C34.96,38.0017586 36.338,38.891287 38.092,39.6207834 C41.298,40.9529976 45.528,41.6866507 50,41.6866507 C54.472,41.6866507 58.702,40.9529976 61.908,39.6207834 C63.662,38.891287 65.04,38.0017586 66,37 L66,43.3493205 C66,46.5603517 59.57,50 50,50 L50,50 Z M34,47 C36.758,49.8997467 42.808,51.8691431 50,51.8691431 C57.192,51.8691431 63.242,49.8997467 66,47 L66,55.2460954 C66,58.506965 59.57,62 50,62 C40.43,62 34,58.506965 34,55.2460954 L34,47 L34,47 Z M50,23 C45.3766667,23 40.9829167,23.8013672 37.6282292,25.2601562 C31.8609375,27.7628711 31,31.3789062 31,33.3125 L31,66.6875 C31,68.6210938 31.8609375,72.2369141 37.6282292,74.7396289 C40.9829167,76.1986328 45.3766667,77 50,77 C54.6233333,77 59.0151042,76.1986328 62.3717708,74.7396289 C68.1390625,72.2369141 69,68.6210938 69,66.6875 L69,33.3125 C69,31.3789062 68.1390625,27.7628711 62.3717708,25.2601562 C59.0151042,23.8013672 54.6233333,23 50,23 Z" id="Fill-160" fill="#5E743C" sketch:type="MSShapeGroup"></path>
        </g>
        <g id="Oval-4-+-Fill-81" sketch:type="MSLayerGroup" transform="translate(120.000000, 26.000000)">
            <path d="M25,50 C38.8071194,50 50,38.8071194 50,25 C50,11.1928806 38.8071194,0 25,0 C11.1928806,0 0,11.1928806 0,25 C0,38.8071194 11.1928806,50 25,50 Z" id="Oval-4" fill="#F8F5F0" sketch:type="MSShapeGroup"></path>
            <path d="M36,16.6428571 C34.8106875,15.0384226 32.9186489,14 30.7865754,14 C28.8934506,14 27.1903986,14.8191756 26,16.1263988 C26.0043445,16.1517262 26.0076029,16.1759524 26.0076029,16.202381 L26.0076029,31.974622 C27.1980015,30.6730149 28.8977952,29.8571429 30.7865754,29.8571429 C32.9186489,29.8571429 34.8106875,30.8955655 36,32.5 L36,16.6428571 L36,16.6428571 Z M24.9923971,31.974622 L24.9923971,16.202381 C24.9923971,16.1759524 24.9956555,16.1517262 25,16.1263988 C23.8096014,14.8191756 22.1065494,14 20.2134246,14 C18.0813511,14 16.1893125,15.0384226 15,16.6428571 L15,32.5 C16.1893125,30.8955655 18.0813511,29.8571429 20.2134246,29.8571429 C22.1022048,29.8571429 23.8019985,30.6730149 24.9923971,31.974622 L24.9923971,31.974622 Z M37,16.4782609 L37,32.1304348 C37,32.5042391 36.7567308,32.8369565 36.3951442,32.9554348 C36.3033654,32.9858696 36.209375,33 36.1153846,33 C35.8422596,33 35.5779808,32.8759783 35.4076923,32.6532609 C34.3096635,31.2152174 32.6333173,30.3913043 30.8076923,30.3913043 C28.9820673,30.3913043 27.3057212,31.2152174 26.2076923,32.6532609 C26.0396154,32.8717391 25.7786538,33 25.5,33 C25.2213462,33 24.9603846,32.8717391 24.7923077,32.6532609 C23.6942788,31.2152174 22.0179327,30.3913043 20.1923077,30.3913043 C18.3666827,30.3913043 16.6903365,31.2152174 15.5923077,32.6532609 C15.4220192,32.8759783 15.1577404,33 14.8846154,33 C14.790625,33 14.6966346,32.9858696 14.6048558,32.9554348 C14.2432692,32.8369565 14,32.5042391 14,32.1304348 L14,16.4782609 C14,16.2902174 14.0619231,16.1065217 14.1769231,15.9553261 C14.8636058,15.058587 15.7614904,14.3152174 16.7754808,13.8054348 C17.8248558,13.2782609 19.0069231,13 20.1923077,13 C21.3776923,13 22.5597596,13.2782609 23.6091346,13.8054348 C24.3035577,14.1543478 24.9449038,14.6141304 25.5,15.1576087 C26.0550962,14.6141304 26.6964423,14.1543478 27.3908654,13.8054348 C28.4402404,13.2782609 29.6223077,13 30.8076923,13 C31.9930769,13 33.1751442,13.2782609 34.2245192,13.8054348 C35.2385096,14.3152174 36.1363942,15.058587 36.8230769,15.9553261 C36.9380769,16.1065217 37,16.2902174 37,16.4782609 L37,16.4782609 Z M28.125,37.5 L22.875,37.5 C22.3915625,37.5 22,37.1108696 22,36.6304348 L22,35.7608696 L12.375,35.7608696 C11.8915625,35.7608696 11.5,35.3717391 11.5,34.8913043 L11.5,18.3695652 C11.5,17.8891304 11.8915625,17.5 12.375,17.5 C12.8584375,17.5 13.25,17.8891304 13.25,18.3695652 L13.25,34.0217391 L22.875,34.0217391 C23.3584375,34.0217391 23.75,34.4108696 23.75,34.8913043 L23.75,35.7608696 L27.25,35.7608696 L27.25,34.8913043 C27.25,34.4108696 27.6415625,34.0217391 28.125,34.0217391 L37.75,34.0217391 L37.75,18.3695652 C37.75,17.8891304 38.1415625,17.5 38.625,17.5 C39.1084375,17.5 39.5,17.8891304 39.5,18.3695652 L39.5,34.8913043 C39.5,35.3717391 39.1084375,35.7608696 38.625,35.7608696 L29,35.7608696 L29,36.6304348 C29,37.1108696 28.6084375,37.5 28.125,37.5 L28.125,37.5 Z" id="Fill-81" opacity="0.7" fill="#ABA79F" sketch:type="MSShapeGroup"></path>
        </g>
        <g id="Oval-4-+-Fill-62-+-Oval-42" sketch:type="MSLayerGroup" transform="translate(0.000000, 86.000000)">
            <path d="M25,50 C38.8071194,50 50,38.8071194 50,25 C50,11.1928806 38.8071194,0 25,0 C11.1928806,0 0,11.1928806 0,25 C0,38.8071194 11.1928806,50 25,50 Z" id="Oval-4" fill="#A6C776" sketch:type="MSShapeGroup"></path>
            <path d="M28,10 L27,10 L27,16.0262318 L23.0000002,16.0262318 L23.0000002,10 L22,10 C20.2878435,11.2886776 18.5,13.1897953 18.5,15.5 C18.5,17.591306 19.5580232,18.7077918 21,20 L21,35.5 C21,38.0961852 22.4074973,40 25,40 C27.5925027,40 29,38.0961852 29,35.5 L29,20 C30.4419768,18.7077918 32,17.591306 32,15.5 C32,13.1897953 29.712274,11.2886776 28,10 Z" id="Path" fill="#5E743C" sketch:type="MSShapeGroup"></path>
            <rect id="Rectangle-77" fill="#A6C776" sketch:type="MSShapeGroup" x="24" y="34" width="2" height="2"></rect>
        </g>
        <g id="Oval-4-+-Fill-160" sketch:type="MSLayerGroup" transform="translate(60.000000, 86.000000)">
            <path d="M25,50 C38.8071194,50 50,38.8071194 50,25 C50,11.1928806 38.8071194,0 25,0 C11.1928806,0 0,11.1928806 0,25 C0,38.8071194 11.1928806,50 25,50 Z" id="Oval-4" fill="#A6C776" sketch:type="MSShapeGroup"></path>
            <path d="M24.3975904,37.0481928 C20.0552315,37.0481928 16.5345593,35.5297721 16.5345593,33.6576784 L16.5345593,29.5180723 C17.8899493,30.9737684 20.8631579,31.9624212 24.3975904,31.9624212 C27.9320228,31.9624212 30.9052315,30.9737684 32.2606214,29.5180723 L32.2606214,33.6576784 C32.2606214,35.5297721 28.7399493,37.0481928 24.3975904,37.0481928 L24.3975904,37.0481928 Z M24.3975904,19.9799197 C20.0552315,19.9799197 16.5345593,18.4061716 16.5345593,16.4658635 C16.5345593,14.5254455 20.0552315,12.9518072 24.3975904,12.9518072 C28.7399493,12.9518072 32.2606214,14.5254455 32.2606214,16.4658635 C32.2606214,18.4061716 28.7399493,19.9799197 24.3975904,19.9799197 L24.3975904,19.9799197 Z M24.3975904,25 C19.6945149,25 16.5345593,23.2732689 16.5345593,21.6613055 L16.5345593,18.4738956 C17.0063412,18.9767864 17.6835447,19.4233368 18.5455295,19.7895499 C20.1210843,20.4583321 22.1998732,20.8266319 24.3975904,20.8266319 C26.5953075,20.8266319 28.6740964,20.4583321 30.2496512,19.7895499 C31.111636,19.4233368 31.7888396,18.9767864 32.2606214,18.4738956 L32.2606214,21.6613055 C32.2606214,23.2732689 29.1006658,25 24.3975904,25 L24.3975904,25 Z M16.5345593,23.4939759 C17.8899493,24.9496721 20.8631579,25.9383248 24.3975904,25.9383248 C27.9320228,25.9383248 30.9052315,24.9496721 32.2606214,23.4939759 L32.2606214,27.633582 C32.2606214,29.2705647 29.1006658,31.0240964 24.3975904,31.0240964 C19.6945149,31.0240964 16.5345593,29.2705647 16.5345593,27.633582 L16.5345593,23.4939759 L16.5345593,23.4939759 Z M24.3975904,11.4457831 C22.125502,11.4457831 19.96624,11.8480759 18.3176142,12.5803997 C15.4833396,13.8367827 15.060241,15.6520614 15.060241,16.622741 L15.060241,33.377259 C15.060241,34.3479386 15.4833396,36.1631095 18.3176142,37.4194924 C19.96624,38.1519241 22.125502,38.5542169 24.3975904,38.5542169 C26.6696787,38.5542169 28.8279681,38.1519241 30.4775665,37.4194924 C33.3118411,36.1631095 33.7349398,34.3479386 33.7349398,33.377259 L33.7349398,16.622741 C33.7349398,15.6520614 33.3118411,13.8367827 30.4775665,12.5803997 C28.8279681,11.8480759 26.6696787,11.4457831 24.3975904,11.4457831 Z" id="Fill-160" opacity="0.7" fill="#5E743C" sketch:type="MSShapeGroup"></path>
        </g>
        <g id="Oval-4-+-Fill-81" sketch:type="MSLayerGroup" transform="translate(120.000000, 86.000000)">
            <path d="M25,50 C38.8071194,50 50,38.8071194 50,25 C50,11.1928806 38.8071194,0 25,0 C11.1928806,0 0,11.1928806 0,25 C0,38.8071194 11.1928806,50 25,50 Z" id="Oval-4" fill="#A6C776" sketch:type="MSShapeGroup"></path>
            <path d="M36,16.6428571 C34.8106875,15.0384226 32.9186489,14 30.7865754,14 C28.8934506,14 27.1903986,14.8191756 26,16.1263988 C26.0043445,16.1517262 26.0076029,16.1759524 26.0076029,16.202381 L26.0076029,31.974622 C27.1980015,30.6730149 28.8977952,29.8571429 30.7865754,29.8571429 C32.9186489,29.8571429 34.8106875,30.8955655 36,32.5 L36,16.6428571 L36,16.6428571 Z M24.9923971,31.974622 L24.9923971,16.202381 C24.9923971,16.1759524 24.9956555,16.1517262 25,16.1263988 C23.8096014,14.8191756 22.1065494,14 20.2134246,14 C18.0813511,14 16.1893125,15.0384226 15,16.6428571 L15,32.5 C16.1893125,30.8955655 18.0813511,29.8571429 20.2134246,29.8571429 C22.1022048,29.8571429 23.8019985,30.6730149 24.9923971,31.974622 L24.9923971,31.974622 Z M37,16.4782609 L37,32.1304348 C37,32.5042391 36.7567308,32.8369565 36.3951442,32.9554348 C36.3033654,32.9858696 36.209375,33 36.1153846,33 C35.8422596,33 35.5779808,32.8759783 35.4076923,32.6532609 C34.3096635,31.2152174 32.6333173,30.3913043 30.8076923,30.3913043 C28.9820673,30.3913043 27.3057212,31.2152174 26.2076923,32.6532609 C26.0396154,32.8717391 25.7786538,33 25.5,33 C25.2213462,33 24.9603846,32.8717391 24.7923077,32.6532609 C23.6942788,31.2152174 22.0179327,30.3913043 20.1923077,30.3913043 C18.3666827,30.3913043 16.6903365,31.2152174 15.5923077,32.6532609 C15.4220192,32.8759783 15.1577404,33 14.8846154,33 C14.790625,33 14.6966346,32.9858696 14.6048558,32.9554348 C14.2432692,32.8369565 14,32.5042391 14,32.1304348 L14,16.4782609 C14,16.2902174 14.0619231,16.1065217 14.1769231,15.9553261 C14.8636058,15.058587 15.7614904,14.3152174 16.7754808,13.8054348 C17.8248558,13.2782609 19.0069231,13 20.1923077,13 C21.3776923,13 22.5597596,13.2782609 23.6091346,13.8054348 C24.3035577,14.1543478 24.9449038,14.6141304 25.5,15.1576087 C26.0550962,14.6141304 26.6964423,14.1543478 27.3908654,13.8054348 C28.4402404,13.2782609 29.6223077,13 30.8076923,13 C31.9930769,13 33.1751442,13.2782609 34.2245192,13.8054348 C35.2385096,14.3152174 36.1363942,15.058587 36.8230769,15.9553261 C36.9380769,16.1065217 37,16.2902174 37,16.4782609 L37,16.4782609 Z M28.125,37.5 L22.875,37.5 C22.3915625,37.5 22,37.1108696 22,36.6304348 L22,35.7608696 L12.375,35.7608696 C11.8915625,35.7608696 11.5,35.3717391 11.5,34.8913043 L11.5,18.3695652 C11.5,17.8891304 11.8915625,17.5 12.375,17.5 C12.8584375,17.5 13.25,17.8891304 13.25,18.3695652 L13.25,34.0217391 L22.875,34.0217391 C23.3584375,34.0217391 23.75,34.4108696 23.75,34.8913043 L23.75,35.7608696 L27.25,35.7608696 L27.25,34.8913043 C27.25,34.4108696 27.6415625,34.0217391 28.125,34.0217391 L37.75,34.0217391 L37.75,18.3695652 C37.75,17.8891304 38.1415625,17.5 38.625,17.5 C39.1084375,17.5 39.5,17.8891304 39.5,18.3695652 L39.5,34.8913043 C39.5,35.3717391 39.1084375,35.7608696 38.625,35.7608696 L29,35.7608696 L29,36.6304348 C29,37.1108696 28.6084375,37.5 28.125,37.5 L28.125,37.5 Z" id="Fill-81" opacity="0.7" fill="#5E743C" sketch:type="MSShapeGroup"></path>
        </g>
        <g id="Oval-4-+-Fill-62" sketch:type="MSLayerGroup" transform="translate(412.000000, 0.000000)">
            <path d="M50,100 C77.6142389,100 100,77.6142389 100,50 C100,22.3857611 77.6142389,0 50,0 C22.3857611,0 0,22.3857611 0,50 C0,77.6142389 22.3857611,100 50,100 Z" id="Oval-4" fill="#A6C776" sketch:type="MSShapeGroup"></path>
            <path d="M72,33.2857143 C69.621375,30.0768452 65.8372977,28 61.5731509,28 C57.7869013,28 54.3807972,29.6383512 52,32.2527976 C52.008689,32.3034524 52.0152058,32.3519048 52.0152058,32.4047619 L52.0152058,63.949244 C54.396003,61.3460298 57.7955903,59.7142857 61.5731509,59.7142857 C65.8372977,59.7142857 69.621375,61.791131 72,65 L72,33.2857143 L72,33.2857143 Z M49.9847942,63.949244 L49.9847942,32.4047619 C49.9847942,32.3519048 49.991311,32.3034524 50,32.2527976 C47.6192028,29.6383512 44.2130987,28 40.4268491,28 C36.1627023,28 32.378625,30.0768452 30,33.2857143 L30,65 C32.378625,61.791131 36.1627023,59.7142857 40.4268491,59.7142857 C44.2044097,59.7142857 47.603997,61.3460298 49.9847942,63.949244 L49.9847942,63.949244 Z M74,32.9565217 L74,64.2608696 C74,65.0084783 73.5134615,65.673913 72.7902885,65.9108696 C72.6067308,65.9717391 72.41875,66 72.2307692,66 C71.6845192,66 71.1559615,65.7519565 70.8153846,65.3065217 C68.6193269,62.4304348 65.2666346,60.7826087 61.6153846,60.7826087 C57.9641346,60.7826087 54.6114423,62.4304348 52.4153846,65.3065217 C52.0792308,65.7434783 51.5573077,66 51,66 C50.4426923,66 49.9207692,65.7434783 49.5846154,65.3065217 C47.3885577,62.4304348 44.0358654,60.7826087 40.3846154,60.7826087 C36.7333654,60.7826087 33.3806731,62.4304348 31.1846154,65.3065217 C30.8440385,65.7519565 30.3154808,66 29.7692308,66 C29.58125,66 29.3932692,65.9717391 29.2097115,65.9108696 C28.4865385,65.673913 28,65.0084783 28,64.2608696 L28,32.9565217 C28,32.5804348 28.1238462,32.2130435 28.3538462,31.9106522 C29.7272115,30.1171739 31.5229808,28.6304348 33.5509615,27.6108696 C35.6497115,26.5565217 38.0138462,26 40.3846154,26 C42.7553846,26 45.1195192,26.5565217 47.2182692,27.6108696 C48.6071154,28.3086957 49.8898077,29.2282609 51,30.3152174 C52.1101923,29.2282609 53.3928846,28.3086957 54.7817308,27.6108696 C56.8804808,26.5565217 59.2446154,26 61.6153846,26 C63.9861538,26 66.3502885,26.5565217 68.4490385,27.6108696 C70.4770192,28.6304348 72.2727885,30.1171739 73.6461538,31.9106522 C73.8761538,32.2130435 74,32.5804348 74,32.9565217 L74,32.9565217 Z M56.25,75 L45.75,75 C44.783125,75 44,74.2217391 44,73.2608696 L44,71.5217391 L24.75,71.5217391 C23.783125,71.5217391 23,70.7434783 23,69.7826087 L23,36.7391304 C23,35.7782609 23.783125,35 24.75,35 C25.716875,35 26.5,35.7782609 26.5,36.7391304 L26.5,68.0434783 L45.75,68.0434783 C46.716875,68.0434783 47.5,68.8217391 47.5,69.7826087 L47.5,71.5217391 L54.5,71.5217391 L54.5,69.7826087 C54.5,68.8217391 55.283125,68.0434783 56.25,68.0434783 L75.5,68.0434783 L75.5,36.7391304 C75.5,35.7782609 76.283125,35 77.25,35 C78.216875,35 79,35.7782609 79,36.7391304 L79,69.7826087 C79,70.7434783 78.216875,71.5217391 77.25,71.5217391 L58,71.5217391 L58,73.2608696 C58,74.2217391 57.216875,75 56.25,75 L56.25,75 Z" id="Fill-81" fill="#5F753D" sketch:type="MSShapeGroup"></path>
        </g>
        <g id="Oval-4-+-Fill-62" sketch:type="MSLayerGroup" transform="translate(192.000000, 110.000000)">
            <path d="M50,100 C77.6142389,100 100,77.6142389 100,50 C100,22.3857611 77.6142389,0 50,0 C22.3857611,0 0,22.3857611 0,50 C0,77.6142389 22.3857611,100 50,100 Z" id="Oval-4" fill="#F8F5F0" sketch:type="MSShapeGroup"></path>
            <path d="M57,72 C57,75.1121291 53.590887,78 50.5000002,78 C47.4091134,78 43.9745565,75.1121291 43.9745565,72 L43.9745567,40 C41.1703811,38.1552538 39,34.6167352 39,31 C39,28.2633918 42.2426342,23.8468585 43.9745565,22 L43.9745567,34 L56.9999993,34 L57,22 C58.7321554,23.8468585 62,28.2633918 62,31 C62,34.6167352 59.8041749,38.1552538 56.9999993,40 L57,72 Z M57.0000004,20 L55.0000004,20 L55.0000004,32.0524635 L46.0000004,32.0524635 L46.0000004,20 L43.9999999,20 C40.575687,22.5773552 37,26.3795906 37,31 C37,35.1826121 39.1160464,38.4155835 42,41 L42,71 C42,76.1923704 45.3235105,79.9681664 50.5085158,79.9681664 C55.6935212,79.9681664 59,76.1923704 59,71 L59,41 C61.8839536,38.4155835 64,35.1826121 64,31 C64,26.3795906 60.4245484,22.5773552 57.0000004,20 Z" id="Fill-62" fill="#CECBC2" sketch:type="MSShapeGroup"></path>
            <circle id="Oval-42" stroke="#CECBC2" sketch:type="MSShapeGroup" cx="50.5" cy="70.5" r="3.5"></circle>
        </g>
        <g id="Oval-4-+-Fill-62" sketch:type="MSLayerGroup" transform="translate(302.000000, 110.000000)">
            <path d="M50,100 C77.6142389,100 100,77.6142389 100,50 C100,22.3857611 77.6142389,0 50,0 C22.3857611,0 0,22.3857611 0,50 C0,77.6142389 22.3857611,100 50,100 Z" id="Oval-4" fill="#F8F5F0" sketch:type="MSShapeGroup"></path>
            <path d="M50,74 C41.164,74 34,70.975306 34,67.2460954 L34,59 C36.758,61.8997467 42.808,63.8691431 50,63.8691431 C57.192,63.8691431 63.242,61.8997467 66,59 L66,67.2460954 C66,70.975306 58.836,74 50,74 L50,74 Z M50,40 C41.164,40 34,36.8650937 34,33 C34,29.1346875 41.164,26 50,26 C58.836,26 66,29.1346875 66,33 C66,36.8650937 58.836,40 50,40 L50,40 Z M50,50 C40.43,50 34,46.5603517 34,43.3493205 L34,37 C34.96,38.0017586 36.338,38.891287 38.092,39.6207834 C41.298,40.9529976 45.528,41.6866507 50,41.6866507 C54.472,41.6866507 58.702,40.9529976 61.908,39.6207834 C63.662,38.891287 65.04,38.0017586 66,37 L66,43.3493205 C66,46.5603517 59.57,50 50,50 L50,50 Z M34,47 C36.758,49.8997467 42.808,51.8691431 50,51.8691431 C57.192,51.8691431 63.242,49.8997467 66,47 L66,55.2460954 C66,58.506965 59.57,62 50,62 C40.43,62 34,58.506965 34,55.2460954 L34,47 L34,47 Z M50,23 C45.3766667,23 40.9829167,23.8013672 37.6282292,25.2601562 C31.8609375,27.7628711 31,31.3789062 31,33.3125 L31,66.6875 C31,68.6210938 31.8609375,72.2369141 37.6282292,74.7396289 C40.9829167,76.1986328 45.3766667,77 50,77 C54.6233333,77 59.0151042,76.1986328 62.3717708,74.7396289 C68.1390625,72.2369141 69,68.6210938 69,66.6875 L69,33.3125 C69,31.3789062 68.1390625,27.7628711 62.3717708,25.2601562 C59.0151042,23.8013672 54.6233333,23 50,23 Z" id="Fill-160" fill="#CECBC2" sketch:type="MSShapeGroup"></path>
        </g>
        <g id="Oval-4-+-Fill-62" sketch:type="MSLayerGroup" transform="translate(412.000000, 110.000000)">
            <path d="M50,100 C77.6142389,100 100,77.6142389 100,50 C100,22.3857611 77.6142389,0 50,0 C22.3857611,0 0,22.3857611 0,50 C0,77.6142389 22.3857611,100 50,100 Z" id="Oval-4" fill="#F8F5F0" sketch:type="MSShapeGroup"></path>
            <path d="M72,31.2857143 C69.621375,28.0768452 65.8372977,26 61.5731509,26 C57.7869013,26 54.3807972,27.6383512 52,30.2527976 C52.008689,30.3034524 52.0152058,30.3519048 52.0152058,30.4047619 L52.0152058,61.949244 C54.396003,59.3460298 57.7955903,57.7142857 61.5731509,57.7142857 C65.8372977,57.7142857 69.621375,59.791131 72,63 L72,31.2857143 L72,31.2857143 Z M49.9847942,61.949244 L49.9847942,30.4047619 C49.9847942,30.3519048 49.991311,30.3034524 50,30.2527976 C47.6192028,27.6383512 44.2130987,26 40.4268491,26 C36.1627023,26 32.378625,28.0768452 30,31.2857143 L30,63 C32.378625,59.791131 36.1627023,57.7142857 40.4268491,57.7142857 C44.2044097,57.7142857 47.603997,59.3460298 49.9847942,61.949244 L49.9847942,61.949244 Z M74,30.9565217 L74,62.2608696 C74,63.0084783 73.5134615,63.673913 72.7902885,63.9108696 C72.6067308,63.9717391 72.41875,64 72.2307692,64 C71.6845192,64 71.1559615,63.7519565 70.8153846,63.3065217 C68.6193269,60.4304348 65.2666346,58.7826087 61.6153846,58.7826087 C57.9641346,58.7826087 54.6114423,60.4304348 52.4153846,63.3065217 C52.0792308,63.7434783 51.5573077,64 51,64 C50.4426923,64 49.9207692,63.7434783 49.5846154,63.3065217 C47.3885577,60.4304348 44.0358654,58.7826087 40.3846154,58.7826087 C36.7333654,58.7826087 33.3806731,60.4304348 31.1846154,63.3065217 C30.8440385,63.7519565 30.3154808,64 29.7692308,64 C29.58125,64 29.3932692,63.9717391 29.2097115,63.9108696 C28.4865385,63.673913 28,63.0084783 28,62.2608696 L28,30.9565217 C28,30.5804348 28.1238462,30.2130435 28.3538462,29.9106522 C29.7272115,28.1171739 31.5229808,26.6304348 33.5509615,25.6108696 C35.6497115,24.5565217 38.0138462,24 40.3846154,24 C42.7553846,24 45.1195192,24.5565217 47.2182692,25.6108696 C48.6071154,26.3086957 49.8898077,27.2282609 51,28.3152174 C52.1101923,27.2282609 53.3928846,26.3086957 54.7817308,25.6108696 C56.8804808,24.5565217 59.2446154,24 61.6153846,24 C63.9861538,24 66.3502885,24.5565217 68.4490385,25.6108696 C70.4770192,26.6304348 72.2727885,28.1171739 73.6461538,29.9106522 C73.8761538,30.2130435 74,30.5804348 74,30.9565217 L74,30.9565217 Z M56.25,73 L45.75,73 C44.783125,73 44,72.2217391 44,71.2608696 L44,69.5217391 L24.75,69.5217391 C23.783125,69.5217391 23,68.7434783 23,67.7826087 L23,34.7391304 C23,33.7782609 23.783125,33 24.75,33 C25.716875,33 26.5,33.7782609 26.5,34.7391304 L26.5,66.0434783 L45.75,66.0434783 C46.716875,66.0434783 47.5,66.8217391 47.5,67.7826087 L47.5,69.5217391 L54.5,69.5217391 L54.5,67.7826087 C54.5,66.8217391 55.283125,66.0434783 56.25,66.0434783 L75.5,66.0434783 L75.5,34.7391304 C75.5,33.7782609 76.283125,33 77.25,33 C78.216875,33 79,33.7782609 79,34.7391304 L79,67.7826087 C79,68.7434783 78.216875,69.5217391 77.25,69.5217391 L58,69.5217391 L58,71.2608696 C58,72.2217391 57.216875,73 56.25,73 L56.25,73 Z" id="Fill-81" fill="#CECBC2" sketch:type="MSShapeGroup"></path>
        </g>
    </g>
</svg>